<svg width="38" height="38" viewBox="0 0 38 38" fill="none" xmlns="http://www.w3.org/2000/svg">
<circle cx="19" cy="19" r="19" fill="white"/>
<path d="M26.4771 20.8452C26.4417 20.904 26.4156 20.9704 26.4033 21.0415C26.3864 21.0415 26.3695 21.0431 26.3541 21.0462C26.391 20.9843 26.4294 20.9241 26.4663 20.8638C26.4694 20.8576 26.474 20.8514 26.4771 20.8468V20.8452Z" fill="#89BC66"/>
<path d="M10.1804 20.8423C10.1481 20.8964 10.1235 20.9551 10.1097 21.0185C10.0974 21.0185 10.0835 21.0185 10.0712 21.0201L10.1804 20.8423Z" fill="#89BC66"/>
<path d="M27.6261 21.0215C27.6138 21.0215 27.6015 21.0215 27.5877 21.0215C27.5754 20.9689 27.5569 20.9195 27.5339 20.8746L27.6261 21.023V21.0215Z" fill="#89BC66"/>
<path d="M18.9215 20.9149C18.9215 20.9149 18.9154 20.9149 18.9138 20.9149C18.9015 20.8871 18.8877 20.8593 18.8708 20.833C18.8877 20.8593 18.9046 20.8871 18.9215 20.9149Z" fill="#89BC66"/>
<path d="M11.3524 21.0509C11.3355 21.0494 11.3186 21.0478 11.3002 21.0463C11.2863 20.9721 11.2602 20.9056 11.2233 20.8438L11.3509 21.0509H11.3524Z" fill="#89BC66"/>
<path d="M4.10199 23.3603C3.81972 23.5748 3.54204 23.8031 3.27204 24.0423C3.14164 23.6519 3.10329 23.2322 3.16926 22.8187C3.39784 22.919 3.74301 23.0934 4.10199 23.3618V23.3603Z" fill="#89BC66"/>
<path d="M9.70913 21.6045L9.24123 22.3605C8.16889 22.5627 7.13645 23.0055 6.24974 23.6566C6.15156 23.7276 6.05491 23.8032 5.95979 23.8803C5.40598 24.3309 4.91661 24.8786 4.507 25.4973C4.45177 25.468 4.39962 25.4387 4.34746 25.4063C3.99768 25.1872 3.72001 24.8987 3.51904 24.57C3.81819 24.3 4.15876 24.0146 4.53768 23.7307C4.68649 23.6211 4.8399 23.51 4.99791 23.402C5.31087 23.1891 5.64377 22.9808 5.99815 22.7864C6.1761 22.6892 6.35866 22.5951 6.54735 22.504C7.48622 22.0535 8.54935 21.7125 9.70913 21.6045Z" fill="#89BC66"/>
<path d="M17.4962 21.2388C16.8642 21.4471 16.2337 21.7325 15.6093 22.092C15.597 22.0982 15.5847 22.1059 15.5725 22.1121C15.459 22.1769 15.347 22.2463 15.2334 22.3157C15.1751 22.2818 15.1153 22.2494 15.057 22.217C13.888 21.5767 12.6255 21.174 11.3537 21.0474L11.2264 20.8407C11.2202 20.8299 11.2141 20.8191 11.2064 20.8083C11.0975 20.6478 10.9119 20.5414 10.7032 20.5414C10.4946 20.5414 10.309 20.6478 10.2001 20.8083C10.1924 20.8191 10.1863 20.8299 10.1801 20.8407L10.0712 21.0181C8.81938 21.0798 7.55835 21.4085 6.31573 21.9994C6.22368 22.0426 6.13163 22.0889 6.03959 22.1352C5.43362 21.7433 4.8522 21.5242 4.42572 21.4039C4.21401 21.3452 4.02992 21.3067 3.87958 21.2804L8.52636 13.7632C8.57545 13.683 8.62915 13.6089 8.68591 13.5364C8.94517 13.2031 9.27193 12.9485 9.63552 12.7834C9.67387 12.7649 9.71222 12.7495 9.75211 12.7341C9.77205 12.7264 9.79199 12.7171 9.81194 12.7109C9.815 12.7109 9.81807 12.7078 9.82268 12.7063C9.85489 12.694 9.88864 12.6832 9.92086 12.6724C9.93313 12.6677 9.9454 12.6646 9.95614 12.6616C9.98069 12.6538 10.0068 12.6461 10.0313 12.6399C10.0497 12.6353 10.0681 12.6307 10.085 12.6261C10.1049 12.6214 10.1249 12.6153 10.1448 12.6122C10.1678 12.6075 10.1893 12.6029 10.2108 12.5983C10.2277 12.5952 10.2446 12.5921 10.2614 12.589C10.286 12.5844 10.3105 12.5813 10.3351 12.5767C10.3519 12.5751 10.3673 12.5721 10.3826 12.5705C10.4072 12.5674 10.4317 12.5643 10.4563 12.5628C10.4731 12.5613 10.49 12.5597 10.5069 12.5582C10.5299 12.5566 10.5529 12.5551 10.5775 12.5535C10.5959 12.5535 10.6143 12.552 10.6342 12.552C10.6557 12.552 10.6772 12.552 10.6986 12.552C10.7201 12.552 10.7416 12.552 10.7615 12.552C10.78 12.552 10.7999 12.552 10.8183 12.5535C10.8413 12.5535 10.8643 12.5551 10.8889 12.5582C10.9057 12.5597 10.9226 12.5613 10.9395 12.5628C10.964 12.5643 10.9886 12.5674 11.0131 12.5705C11.03 12.5721 11.0454 12.5751 11.0607 12.5767C11.0852 12.5798 11.1098 12.5844 11.1343 12.589C11.1512 12.5921 11.1681 12.5952 11.185 12.5983C11.208 12.6029 11.2294 12.6075 11.2509 12.6122C11.2709 12.6168 11.2908 12.6214 11.3108 12.6261C11.3292 12.6307 11.3476 12.6353 11.3644 12.6399C11.3905 12.6461 11.4151 12.6538 11.4396 12.6616C11.4519 12.6646 11.4642 12.6693 11.4749 12.6724C11.5071 12.6832 11.5409 12.694 11.5731 12.7063C11.5762 12.7063 11.5808 12.7094 11.5838 12.7109L11.6483 12.7372C11.6667 12.7433 11.6835 12.751 11.7004 12.7588C11.7204 12.7665 11.7388 12.7757 11.7587 12.785C11.7787 12.7942 11.7971 12.8035 11.817 12.8128C11.86 12.8328 11.9029 12.856 11.9443 12.8806C11.9735 12.8976 12.0011 12.9146 12.0302 12.9316C12.0348 12.9347 12.041 12.9377 12.0441 12.9393C12.0487 12.9408 12.0517 12.9439 12.0548 12.947C12.3754 13.1476 12.6562 13.4222 12.8694 13.7678L14.517 16.4356L17.4886 21.2434L17.4962 21.2388Z" fill="#0B9E7F"/>
<path d="M5.47194 22.4485C5.16819 22.6244 4.86904 22.8141 4.57296 23.0194C4.08358 22.6274 3.60187 22.3929 3.31653 22.2741C3.37176 22.1337 3.44079 21.9948 3.5221 21.8621L3.55738 21.8051C3.92096 21.8436 4.66807 21.9948 5.4704 22.45L5.47194 22.4485Z" fill="#89BC66"/>
<path d="M8.82861 23.0286L7.87133 24.5778C7.26229 25.5637 6.09791 25.9926 5.03632 25.7056C5.40143 25.1749 5.82944 24.7058 6.30962 24.3139C6.39706 24.2429 6.48604 24.1735 6.57655 24.1072C7.25462 23.6103 8.02321 23.2447 8.82861 23.0271V23.0286Z" fill="#89BC66"/>
<path d="M34.4143 24.0685C34.1351 23.8201 33.8467 23.584 33.5536 23.3603C33.9326 23.0779 34.2962 22.899 34.5232 22.8018C34.5922 23.2292 34.5523 23.6658 34.4127 24.0685H34.4143Z" fill="#89BC66"/>
<path d="M34.1642 24.5932C33.9632 24.9126 33.6902 25.1934 33.3496 25.4063C33.2867 25.4449 33.2238 25.4804 33.1594 25.5143C32.7467 24.8879 32.2542 24.3355 31.6958 23.8803C31.6007 23.8032 31.5025 23.7276 31.4059 23.6566C30.5315 23.0148 29.5159 22.5766 28.4589 22.3698L27.9879 21.6091C29.1324 21.7218 30.1801 22.0612 31.1083 22.5056C31.2954 22.5951 31.4795 22.6892 31.6575 22.7879C32.0119 22.9824 32.3448 23.1906 32.6577 23.402C32.8173 23.51 32.9707 23.6211 33.1179 23.7307C33.5076 24.0223 33.8574 24.317 34.1627 24.5932H34.1642Z" fill="#89BC66"/>
<path d="M32.624 25.7164C31.5731 25.9833 30.4271 25.5544 29.8242 24.5793L28.8746 23.0425C29.6616 23.2616 30.4133 23.6226 31.0761 24.1087C31.1666 24.1735 31.2556 24.2444 31.3445 24.3154C31.8278 24.7089 32.2573 25.1825 32.624 25.7164Z" fill="#89BC66"/>
<path d="M34.3729 22.2586C34.0937 22.3728 33.592 22.6104 33.0827 23.0178C32.7866 22.8125 32.4875 22.6212 32.1837 22.4469C33.0152 21.9763 33.7884 21.8297 34.1351 21.7988L34.1734 21.8605C34.2532 21.9886 34.3192 22.1228 34.3744 22.2586H34.3729Z" fill="#89BC66"/>
<path d="M21.333 23.0332C21.0998 23.2076 20.8728 23.3912 20.6519 23.5856C20.408 23.3125 20.1963 23.0024 19.9984 22.683H20.003C20.3941 22.6953 20.8989 22.7725 21.333 23.0317V23.0332Z" fill="#89BC66"/>
<path d="M25.0517 23.1243C24.6528 23.6874 24.1788 24.1812 23.5084 24.4188C23.2445 24.5129 22.9699 24.5577 22.6968 24.5623C22.8671 24.3957 23.0466 24.2383 23.2353 24.0932C23.7906 23.6674 24.4012 23.3434 25.0517 23.1243Z" fill="#89BC66"/>
<path d="M22.4667 22.2926C22.2473 22.416 22.0326 22.5487 21.8209 22.6891C21.3514 22.3404 20.7393 22.1475 20.0198 22.1244C19.9032 22.1198 19.7851 22.1228 19.6655 22.1275C19.5335 21.9007 19.4031 21.6769 19.2681 21.464C19.2651 21.4578 19.2605 21.4517 19.2574 21.447C20.4432 21.3683 21.5815 21.6677 22.4667 22.2926Z" fill="#89BC66"/>
<path d="M17.9273 24.499C17.8338 24.6626 17.7218 24.8169 17.5914 24.9604C17.438 25.1285 17.26 25.2798 17.0575 25.4063C16.9026 25.5035 16.7415 25.5806 16.5758 25.6408C16.384 25.7102 16.1861 25.7565 15.9882 25.7781C15.6922 25.8105 15.3945 25.7905 15.1077 25.7226C15.2258 25.5251 15.3562 25.3322 15.4958 25.1455C15.6093 24.9943 15.729 24.8477 15.8548 24.7058C16.0864 24.4466 16.338 24.2028 16.6049 23.979C16.7507 23.8587 16.9026 23.743 17.059 23.635C17.2784 23.4838 17.507 23.3449 17.7432 23.223C17.846 23.1705 17.9381 23.1243 18.024 23.0841C18.0992 23.0487 18.1759 23.0163 18.2556 22.9869C18.3017 23.5131 18.1881 24.0423 17.9273 24.499Z" fill="#89BC66"/>
<path d="M13.572 23.5454C13.4263 23.6704 13.2805 23.8 13.1332 23.9327L12.6423 23.1381C12.9614 23.2476 13.2713 23.3834 13.5705 23.5439L13.572 23.5454Z" fill="#89BC66"/>
<path d="M18.1436 22.4315C18.024 22.4747 17.9059 22.5241 17.7923 22.575C17.6988 22.6182 17.599 22.6676 17.4886 22.7246C17.1879 22.8805 16.898 23.061 16.6203 23.2631C16.4653 23.3758 16.315 23.493 16.1693 23.618C15.9253 23.8263 15.6937 24.0531 15.4774 24.2923C15.3516 24.4311 15.2319 24.5762 15.1184 24.7228C14.919 24.9804 14.738 25.2504 14.5769 25.5282C14.1611 25.323 13.7945 25.002 13.5322 24.5777L13.4324 24.4157C13.6472 24.2182 13.8604 24.0284 14.0768 23.8479C14.2286 23.7214 14.3805 23.5995 14.5339 23.4822C14.7702 23.3002 15.008 23.1304 15.2457 22.9731C15.3608 22.8975 15.4743 22.8234 15.5909 22.7524C15.6507 22.7154 15.7106 22.6799 15.7689 22.6444C15.8118 22.6197 15.8532 22.595 15.8962 22.5704C15.9085 22.5642 15.9207 22.5565 15.9315 22.5503C16.3303 22.3235 16.7307 22.1275 17.1327 21.9671C17.3551 21.8776 17.5776 21.7973 17.8 21.7279L17.8813 21.8591C17.9948 22.0427 18.0823 22.234 18.1452 22.4299L18.1436 22.4315Z" fill="#89BC66"/>
<path d="M14.7072 22.6645C14.4833 22.8219 14.2593 22.9885 14.0353 23.1644C13.4631 22.8296 12.8479 22.5827 12.2051 22.4284L11.7296 21.66C12.7513 21.8143 13.7592 22.1569 14.7072 22.6645Z" fill="#89BC66"/>
<path d="M25.9783 21.6538C25.9108 21.7618 25.8448 21.8683 25.7789 21.9763C25.6899 22.1213 25.6009 22.2679 25.5104 22.4176C24.5654 22.6367 23.6817 23.0502 22.8994 23.6488C22.5741 23.8972 22.2811 24.175 22.0065 24.4743C21.7411 24.4018 21.4864 24.2861 21.2533 24.1271C21.1842 24.0809 21.1198 24.0299 21.0538 23.9759C21.6383 23.4683 22.2688 23.0317 22.9285 22.6752C23.0067 22.6336 23.085 22.5919 23.1632 22.5533C24.0637 22.0997 25.0133 21.7942 25.9752 21.6554L25.9783 21.6538Z" fill="#89BC66"/>
<path d="M29.2459 13.8883L29.1692 13.7633C28.7336 13.0582 28.0141 12.6385 27.2516 12.5613C27.2255 12.5598 27.201 12.5567 27.1749 12.5552C27.1488 12.5536 27.1243 12.5521 27.0982 12.5505C27.0905 12.5505 27.0813 12.5505 27.0737 12.5505C27.0476 12.5505 27.023 12.5505 26.997 12.5505C26.9755 12.5505 26.954 12.5505 26.9325 12.5505C26.9233 12.5505 26.9141 12.5505 26.9064 12.5505C26.8865 12.5505 26.8681 12.5521 26.8481 12.5536C26.8067 12.5567 26.7653 12.5598 26.7239 12.5644C26.6932 12.5675 26.6641 12.5721 26.6334 12.5768C26.6272 12.5768 26.6196 12.5783 26.6134 12.5799C26.6088 12.5799 26.6042 12.5814 26.5996 12.5814C26.5705 12.586 26.5413 12.5922 26.5122 12.5968C26.4815 12.603 26.4508 12.6092 26.4217 12.6169C26.3894 12.6246 26.3588 12.6323 26.3266 12.6416C26.2698 12.657 26.2146 12.674 26.1609 12.694C26.1501 12.6971 26.1409 12.7002 26.1317 12.7048C26.1041 12.7156 26.0765 12.7249 26.0504 12.7357C26.0427 12.7388 26.0366 12.7419 26.0289 12.7449C26.0059 12.7542 25.9829 12.765 25.9599 12.7743C25.9323 12.7866 25.9031 12.8005 25.874 12.8144C25.874 12.8144 25.8709 12.8159 25.8694 12.8159C25.8448 12.8283 25.8188 12.8406 25.7942 12.8545L25.7727 12.8668C25.7467 12.8807 25.7221 12.8946 25.696 12.91C25.6669 12.927 25.6393 12.944 25.6117 12.9625C25.5856 12.9795 25.558 12.998 25.5319 13.0165C25.5319 13.0165 25.5319 13.0165 25.5304 13.018C25.5058 13.035 25.4813 13.0535 25.4583 13.0705C25.426 13.0952 25.3954 13.1199 25.3631 13.1461C25.3401 13.1646 25.3186 13.1847 25.2956 13.2047C25.2711 13.2279 25.2465 13.2495 25.222 13.2742C25.0747 13.4177 24.9413 13.5812 24.8293 13.7648L24.7526 13.8898L22.6785 17.2457L20.5277 13.7664C20.4387 13.6213 20.3374 13.4902 20.227 13.3698C20.1902 13.3297 20.1518 13.2911 20.1135 13.2541C19.8864 13.0366 19.6241 12.8668 19.3418 12.7496C19.3173 12.7388 19.2927 12.7295 19.2682 12.7203C19.2191 12.7002 19.1684 12.6832 19.1194 12.6678C19.1117 12.6663 19.1056 12.6632 19.0979 12.6616C19.0703 12.6539 19.0411 12.6447 19.0135 12.6369C18.9966 12.6323 18.9813 12.6292 18.9644 12.6246C18.9445 12.62 18.9261 12.6153 18.9061 12.6107C18.8862 12.6061 18.8678 12.6015 18.8478 12.5984C18.8309 12.5953 18.8156 12.5922 18.8003 12.5891C18.7788 12.5845 18.7573 12.5814 18.7343 12.5783C18.7236 12.5768 18.7113 12.5752 18.699 12.5737C18.6561 12.5675 18.6131 12.5629 18.5686 12.5598C18.5517 12.5598 18.5349 12.5567 18.518 12.5552C18.4996 12.5536 18.4796 12.5536 18.4612 12.5521C18.4413 12.5521 18.4213 12.5505 18.4014 12.5505C18.3845 12.5505 18.3676 12.5505 18.3508 12.5505C18.3278 12.5505 18.3048 12.5505 18.2817 12.5505C18.2679 12.5505 18.2541 12.5505 18.2388 12.5521C18.2112 12.5521 18.1836 12.5552 18.1559 12.5567C18.1452 12.5567 18.136 12.5583 18.1268 12.5583C18.0685 12.5644 18.0087 12.5706 17.9519 12.5799C17.932 12.5829 17.9136 12.586 17.8936 12.5907C17.8875 12.5907 17.8813 12.5922 17.8752 12.5937C17.8445 12.5999 17.8138 12.6061 17.7832 12.6138C17.7694 12.6169 17.7555 12.62 17.7402 12.6246C17.7187 12.6308 17.6972 12.6354 17.6758 12.6416C17.6558 12.6477 17.6359 12.6524 17.6175 12.6585C17.6037 12.6632 17.5899 12.6663 17.5761 12.6709C17.55 12.6786 17.5254 12.6879 17.4994 12.6971C17.4947 12.6987 17.4917 12.7002 17.4871 12.7017C17.3812 12.7403 17.2754 12.7866 17.1726 12.8406C17.1542 12.8499 17.1358 12.8591 17.1189 12.8699C17.0821 12.89 17.0453 12.9116 17.01 12.9347C17.0084 12.9347 17.0069 12.9363 17.0054 12.9378C16.9793 12.9532 16.9547 12.9702 16.9302 12.9872C16.9302 12.9872 16.9287 12.9872 16.9271 12.9887C16.9118 12.9995 16.8964 13.0088 16.8826 13.0196C16.8688 13.0288 16.8566 13.0381 16.8428 13.0489C16.8259 13.0613 16.809 13.0736 16.7937 13.0859C16.5559 13.268 16.3472 13.4948 16.18 13.7648L14.8638 15.8941L17.8767 20.7806C17.9887 20.6356 18.1621 20.543 18.3569 20.543C18.5655 20.543 18.7481 20.6479 18.8586 20.8084C18.8647 20.8176 18.8708 20.8269 18.8754 20.8361C18.8923 20.8624 18.9092 20.8901 18.9261 20.9179C20.4448 20.7451 21.9268 21.1355 23.016 22.0072C24.0822 21.4826 25.2159 21.154 26.3572 21.0491C26.3941 20.9873 26.4324 20.9272 26.4692 20.867C26.4723 20.8608 26.4769 20.8547 26.48 20.85C26.5858 20.671 26.7791 20.5522 27.0016 20.5522C27.2056 20.5522 27.3851 20.6541 27.4955 20.8084C27.5109 20.83 27.5247 20.8531 27.5385 20.8778L27.6305 21.0259C28.8686 21.0923 30.1142 21.4209 31.3446 22.0072C31.4366 22.0504 31.5287 22.0967 31.6207 22.143C32.2267 21.7511 32.8081 21.532 33.2346 21.4117C33.4632 21.3469 33.6595 21.3067 33.8176 21.2821L29.2521 13.8929L29.2459 13.8883Z" fill="#1B5849"/>
<path d="M26.4771 20.8453C26.4417 20.9041 26.4156 20.9706 26.4033 21.0417C26.3864 21.0417 26.3695 21.0432 26.3541 21.0463C26.391 20.9845 26.4294 20.9242 26.4663 20.8639C26.4694 20.8577 26.474 20.8515 26.4771 20.8469V20.8453Z" fill="#89BC66"/>
<path d="M10.1803 20.8423C10.148 20.8964 10.1234 20.9551 10.1096 21.0185C10.0973 21.0185 10.0835 21.0185 10.0712 21.0201L10.1803 20.8423Z" fill="#89BC66"/>
<path d="M27.626 21.0215C27.6137 21.0215 27.6014 21.0215 27.5876 21.0215C27.5753 20.9689 27.5569 20.9195 27.5338 20.8746L27.626 21.023V21.0215Z" fill="#89BC66"/>
<path d="M18.9215 20.9149C18.9215 20.9149 18.9154 20.9149 18.9138 20.9149C18.9015 20.8871 18.8877 20.8593 18.8708 20.833C18.8877 20.8593 18.9046 20.8871 18.9215 20.9149Z" fill="#89BC66"/>
<path d="M11.3524 21.051C11.3355 21.0495 11.3186 21.0479 11.3002 21.0464C11.2863 20.9722 11.2602 20.9057 11.2233 20.8439L11.3509 21.051H11.3524Z" fill="#89BC66"/>
<path d="M9.70913 21.6045L9.24123 22.3605C8.16889 22.5627 7.13645 23.0055 6.24974 23.6566C6.15156 23.7276 6.05491 23.8032 5.95979 23.8803C5.40598 24.3309 4.91661 24.8786 4.507 25.4973C4.45177 25.468 4.39962 25.4387 4.34746 25.4063C3.99768 25.1872 3.72001 24.8987 3.51904 24.57C3.81819 24.3 4.15876 24.0146 4.53768 23.7307C4.68649 23.6211 4.8399 23.51 4.99791 23.402C5.31087 23.1891 5.64377 22.9808 5.99815 22.7864C6.1761 22.6892 6.35866 22.5951 6.54735 22.504C7.48622 22.0535 8.54935 21.7125 9.70913 21.6045Z" fill="#89BC66"/>
<path d="M17.4962 21.2388C16.8642 21.4471 16.2337 21.7325 15.6093 22.092C15.597 22.0982 15.5847 22.1059 15.5725 22.1121C15.459 22.1769 15.347 22.2463 15.2334 22.3157C15.1751 22.2818 15.1153 22.2494 15.057 22.217C13.888 21.5767 12.6255 21.174 11.3537 21.0474L11.2264 20.8407C11.2202 20.8299 11.2141 20.8191 11.2064 20.8083C11.0975 20.6478 10.9119 20.5414 10.7032 20.5414C10.4946 20.5414 10.309 20.6478 10.2001 20.8083C10.1924 20.8191 10.1863 20.8299 10.1801 20.8407L10.0712 21.0181C8.81938 21.0798 7.55835 21.4085 6.31573 21.9994C6.22368 22.0426 6.13163 22.0889 6.03959 22.1352C5.43362 21.7433 4.8522 21.5242 4.42572 21.4039C4.21401 21.3452 4.02992 21.3067 3.87958 21.2804L8.52636 13.7632C8.57545 13.683 8.62915 13.6089 8.68591 13.5364C8.94517 13.2031 9.27193 12.9485 9.63552 12.7834C9.67387 12.7649 9.71222 12.7495 9.75211 12.7341C9.77205 12.7264 9.79199 12.7171 9.81194 12.7109C9.815 12.7109 9.81807 12.7078 9.82268 12.7063C9.85489 12.694 9.88864 12.6832 9.92086 12.6724C9.93313 12.6677 9.9454 12.6646 9.95614 12.6616C9.98069 12.6538 10.0068 12.6461 10.0313 12.6399C10.0497 12.6353 10.0681 12.6307 10.085 12.6261C10.1049 12.6214 10.1249 12.6153 10.1448 12.6122C10.1678 12.6075 10.1893 12.6029 10.2108 12.5983C10.2277 12.5952 10.2446 12.5921 10.2614 12.589C10.286 12.5844 10.3105 12.5813 10.3351 12.5767C10.3519 12.5751 10.3673 12.5721 10.3826 12.5705C10.4072 12.5674 10.4317 12.5643 10.4563 12.5628C10.4731 12.5613 10.49 12.5597 10.5069 12.5582C10.5299 12.5566 10.5529 12.5551 10.5775 12.5535C10.5959 12.5535 10.6143 12.552 10.6342 12.552C10.6557 12.552 10.6772 12.552 10.6986 12.552C10.7201 12.552 10.7416 12.552 10.7615 12.552C10.78 12.552 10.7999 12.552 10.8183 12.5535C10.8413 12.5535 10.8643 12.5551 10.8889 12.5582C10.9057 12.5597 10.9226 12.5613 10.9395 12.5628C10.964 12.5643 10.9886 12.5674 11.0131 12.5705C11.03 12.5721 11.0454 12.5751 11.0607 12.5767C11.0852 12.5798 11.1098 12.5844 11.1343 12.589C11.1512 12.5921 11.1681 12.5952 11.185 12.5983C11.208 12.6029 11.2294 12.6075 11.2509 12.6122C11.2709 12.6168 11.2908 12.6214 11.3108 12.6261C11.3292 12.6307 11.3476 12.6353 11.3644 12.6399C11.3905 12.6461 11.4151 12.6538 11.4396 12.6616C11.4519 12.6646 11.4642 12.6693 11.4749 12.6724C11.5071 12.6832 11.5409 12.694 11.5731 12.7063C11.5762 12.7063 11.5808 12.7094 11.5838 12.7109L11.6483 12.7372C11.6667 12.7433 11.6835 12.751 11.7004 12.7588C11.7204 12.7665 11.7388 12.7757 11.7587 12.785C11.7787 12.7942 11.7971 12.8035 11.817 12.8128C11.86 12.8328 11.9029 12.856 11.9443 12.8806C11.9735 12.8976 12.0011 12.9146 12.0302 12.9316C12.0348 12.9347 12.041 12.9377 12.0441 12.9393C12.0487 12.9408 12.0517 12.9439 12.0548 12.947C12.3754 13.1476 12.6562 13.4222 12.8694 13.7678L14.517 16.4356L17.4886 21.2434L17.4962 21.2388Z" fill="#0B9E7F"/>
<path d="M5.47194 22.4485C5.16819 22.6244 4.86904 22.8141 4.57296 23.0194C4.08358 22.6274 3.60187 22.3929 3.31653 22.2741C3.37176 22.1337 3.44079 21.9948 3.5221 21.8621L3.55738 21.8051C3.92096 21.8436 4.66807 21.9948 5.4704 22.45L5.47194 22.4485Z" fill="#89BC66"/>
<path d="M8.82855 23.0286L7.87127 24.5778C7.26223 25.5637 6.09785 25.9926 5.03625 25.7056C5.40137 25.1749 5.82938 24.7058 6.30956 24.3139C6.397 24.2429 6.48598 24.1735 6.57649 24.1072C7.25456 23.6103 8.02314 23.2447 8.82855 23.0271V23.0286Z" fill="#89BC66"/>
<path d="M34.4143 24.0685C34.1351 23.8201 33.8467 23.584 33.5536 23.3603C33.9326 23.0779 34.2962 22.899 34.5232 22.8018C34.5922 23.2292 34.5523 23.6658 34.4127 24.0685H34.4143Z" fill="#89BC66"/>
<path d="M34.1642 24.5932C33.9632 24.9126 33.6902 25.1934 33.3496 25.4063C33.2867 25.4449 33.2238 25.4804 33.1594 25.5143C32.7467 24.8879 32.2542 24.3355 31.6958 23.8803C31.6007 23.8032 31.5025 23.7276 31.4059 23.6566C30.5315 23.0148 29.5159 22.5766 28.4589 22.3698L27.9879 21.6091C29.1324 21.7218 30.1801 22.0612 31.1083 22.5056C31.2954 22.5951 31.4795 22.6892 31.6575 22.7879C32.0119 22.9824 32.3448 23.1906 32.6577 23.402C32.8173 23.51 32.9707 23.6211 33.1179 23.7307C33.5076 24.0223 33.8574 24.317 34.1627 24.5932H34.1642Z" fill="#89BC66"/>
<path d="M32.624 25.7164C31.5731 25.9833 30.4271 25.5544 29.8242 24.5793L28.8746 23.0425C29.6616 23.2616 30.4133 23.6226 31.0761 24.1087C31.1666 24.1735 31.2556 24.2444 31.3445 24.3154C31.8278 24.7089 32.2573 25.1825 32.624 25.7164Z" fill="#89BC66"/>
<path d="M34.3728 22.2586C34.0936 22.3728 33.592 22.6104 33.0826 23.0178C32.7866 22.8125 32.4874 22.6212 32.1837 22.4469C33.0151 21.9763 33.7883 21.8297 34.135 21.7988L34.1734 21.8605C34.2532 21.9886 34.3191 22.1228 34.3743 22.2586H34.3728Z" fill="#89BC66"/>
<path d="M21.333 23.0332C21.0998 23.2076 20.8728 23.3912 20.6519 23.5856C20.408 23.3125 20.1963 23.0024 19.9984 22.683H20.003C20.3941 22.6953 20.8989 22.7725 21.333 23.0317V23.0332Z" fill="#89BC66"/>
<path d="M25.0517 23.1243C24.6528 23.6874 24.1788 24.1812 23.5084 24.4188C23.2445 24.5129 22.9699 24.5577 22.6968 24.5623C22.8671 24.3957 23.0466 24.2383 23.2353 24.0932C23.7906 23.6674 24.4012 23.3434 25.0517 23.1243Z" fill="#89BC66"/>
<path d="M22.4667 22.2927C22.2473 22.4161 22.0325 22.5488 21.8208 22.6892C21.3514 22.3405 20.7393 22.1477 20.0198 22.1245C19.9032 22.1199 19.7851 22.123 19.6654 22.1276C19.5335 21.9008 19.4031 21.6771 19.2681 21.4641C19.265 21.458 19.2604 21.4518 19.2573 21.4472C20.4432 21.3685 21.5815 21.6678 22.4667 22.2927Z" fill="#89BC66"/>
<path d="M17.9273 24.499C17.8338 24.6626 17.7218 24.8169 17.5914 24.9604C17.438 25.1285 17.26 25.2798 17.0575 25.4063C16.9026 25.5035 16.7415 25.5806 16.5758 25.6408C16.384 25.7102 16.1861 25.7565 15.9882 25.7781C15.6922 25.8105 15.3945 25.7905 15.1077 25.7226C15.2258 25.5251 15.3562 25.3322 15.4958 25.1455C15.6093 24.9943 15.729 24.8477 15.8548 24.7058C16.0864 24.4466 16.338 24.2028 16.6049 23.979C16.7507 23.8587 16.9026 23.743 17.059 23.635C17.2784 23.4838 17.507 23.3449 17.7432 23.223C17.846 23.1705 17.9381 23.1243 18.024 23.0841C18.0992 23.0487 18.1759 23.0163 18.2556 22.9869C18.3017 23.5131 18.1881 24.0423 17.9273 24.499Z" fill="#89BC66"/>
<path d="M13.572 23.5454C13.4263 23.6704 13.2805 23.8 13.1332 23.9327L12.6423 23.1381C12.9614 23.2476 13.2713 23.3834 13.5705 23.5439L13.572 23.5454Z" fill="#89BC66"/>
<path d="M18.1436 22.4315C18.024 22.4747 17.9059 22.5241 17.7923 22.575C17.6988 22.6182 17.599 22.6676 17.4886 22.7246C17.1879 22.8805 16.898 23.061 16.6203 23.2631C16.4653 23.3758 16.315 23.493 16.1693 23.618C15.9253 23.8263 15.6937 24.0531 15.4774 24.2923C15.3516 24.4311 15.2319 24.5762 15.1184 24.7228C14.919 24.9804 14.738 25.2504 14.5769 25.5282C14.1611 25.323 13.7945 25.002 13.5322 24.5777L13.4324 24.4157C13.6472 24.2182 13.8604 24.0284 14.0768 23.8479C14.2286 23.7214 14.3805 23.5995 14.5339 23.4822C14.7702 23.3002 15.008 23.1304 15.2457 22.9731C15.3608 22.8975 15.4743 22.8234 15.5909 22.7524C15.6507 22.7154 15.7106 22.6799 15.7689 22.6444C15.8118 22.6197 15.8532 22.595 15.8962 22.5704C15.9085 22.5642 15.9207 22.5565 15.9315 22.5503C16.3303 22.3235 16.7307 22.1275 17.1327 21.9671C17.3551 21.8776 17.5776 21.7973 17.8 21.7279L17.8813 21.8591C17.9948 22.0427 18.0823 22.234 18.1452 22.4299L18.1436 22.4315Z" fill="#89BC66"/>
<path d="M14.7072 22.6645C14.4833 22.8219 14.2593 22.9885 14.0353 23.1644C13.4631 22.8296 12.8479 22.5827 12.2051 22.4284L11.7296 21.66C12.7513 21.8143 13.7592 22.1569 14.7072 22.6645Z" fill="#89BC66"/>
<path d="M25.9782 21.6538C25.9107 21.7618 25.8448 21.8683 25.7788 21.9763C25.6898 22.1213 25.6008 22.2679 25.5103 22.4176C24.5653 22.6367 23.6817 23.0502 22.8993 23.6488C22.5741 23.8972 22.2811 24.175 22.0064 24.4743C21.741 24.4018 21.4864 24.2861 21.2532 24.1271C21.1842 24.0809 21.1197 24.0299 21.0538 23.9759C21.6383 23.4683 22.2688 23.0317 22.9284 22.6752C23.0067 22.6336 23.0849 22.5919 23.1632 22.5533C24.0637 22.0997 25.0133 21.7942 25.9752 21.6554L25.9782 21.6538Z" fill="#89BC66"/>
<path d="M29.2459 13.8883L29.1692 13.7633C28.7335 13.0582 28.014 12.6385 27.2516 12.5613C27.2255 12.5598 27.2009 12.5567 27.1748 12.5552C27.1488 12.5536 27.1242 12.5521 27.0981 12.5505C27.0905 12.5505 27.0813 12.5505 27.0736 12.5505C27.0475 12.5505 27.023 12.5505 26.9969 12.5505C26.9754 12.5505 26.9539 12.5505 26.9325 12.5505C26.9233 12.5505 26.9141 12.5505 26.9064 12.5505C26.8864 12.5505 26.868 12.5521 26.8481 12.5536C26.8067 12.5567 26.7652 12.5598 26.7238 12.5644C26.6931 12.5675 26.664 12.5721 26.6333 12.5768C26.6272 12.5768 26.6195 12.5783 26.6134 12.5799C26.6088 12.5799 26.6042 12.5814 26.5996 12.5814C26.5704 12.586 26.5413 12.5922 26.5121 12.5968C26.4814 12.603 26.4508 12.6092 26.4216 12.6169C26.3894 12.6246 26.3587 12.6323 26.3265 12.6416C26.2697 12.657 26.2145 12.674 26.1608 12.694C26.1501 12.6971 26.1409 12.7002 26.1317 12.7048C26.104 12.7156 26.0764 12.7249 26.0504 12.7357C26.0427 12.7388 26.0365 12.7419 26.0289 12.7449C26.0059 12.7542 25.9829 12.765 25.9598 12.7743C25.9322 12.7866 25.9031 12.8005 25.8739 12.8144C25.8739 12.8144 25.8709 12.8159 25.8693 12.8159C25.8448 12.8283 25.8187 12.8406 25.7942 12.8545L25.7727 12.8668C25.7466 12.8807 25.7221 12.8946 25.696 12.91C25.6668 12.927 25.6392 12.944 25.6116 12.9625C25.5855 12.9795 25.5579 12.998 25.5318 13.0165C25.5318 13.0165 25.5318 13.0165 25.5303 13.018C25.5057 13.035 25.4812 13.0535 25.4582 13.0705C25.426 13.0952 25.3953 13.1199 25.3631 13.1461C25.3401 13.1646 25.3186 13.1847 25.2956 13.2047C25.271 13.2279 25.2465 13.2495 25.2219 13.2742C25.0747 13.4177 24.9412 13.5812 24.8292 13.7648L24.7525 13.8898L22.6784 17.2457L20.5276 13.7664C20.4386 13.6213 20.3374 13.4902 20.2269 13.3698C20.1901 13.3297 20.1517 13.2911 20.1134 13.2541C19.8863 13.0366 19.624 12.8668 19.3417 12.7496C19.3172 12.7388 19.2926 12.7295 19.2681 12.7203C19.219 12.7002 19.1684 12.6832 19.1193 12.6678C19.1116 12.6663 19.1055 12.6632 19.0978 12.6616C19.0702 12.6539 19.0411 12.6447 19.0134 12.6369C18.9966 12.6323 18.9812 12.6292 18.9644 12.6246C18.9444 12.62 18.926 12.6153 18.9061 12.6107C18.8861 12.6061 18.8677 12.6015 18.8478 12.5984C18.8309 12.5953 18.8155 12.5922 18.8002 12.5891C18.7787 12.5845 18.7572 12.5814 18.7342 12.5783C18.7235 12.5768 18.7112 12.5752 18.699 12.5737C18.656 12.5675 18.613 12.5629 18.5686 12.5598C18.5517 12.5598 18.5348 12.5567 18.5179 12.5552C18.4995 12.5536 18.4796 12.5536 18.4612 12.5521C18.4412 12.5521 18.4213 12.5505 18.4013 12.5505C18.3845 12.5505 18.3676 12.5505 18.3507 12.5505C18.3277 12.5505 18.3047 12.5505 18.2817 12.5505C18.2679 12.5505 18.2541 12.5505 18.2387 12.5521C18.2111 12.5521 18.1835 12.5552 18.1559 12.5567C18.1451 12.5567 18.1359 12.5583 18.1267 12.5583C18.0684 12.5644 18.0086 12.5706 17.9518 12.5799C17.9319 12.5829 17.9135 12.586 17.8936 12.5907C17.8874 12.5907 17.8813 12.5922 17.8751 12.5937C17.8445 12.5999 17.8138 12.6061 17.7831 12.6138C17.7693 12.6169 17.7555 12.62 17.7401 12.6246C17.7187 12.6308 17.6972 12.6354 17.6757 12.6416C17.6558 12.6477 17.6358 12.6524 17.6174 12.6585C17.6036 12.6632 17.5898 12.6663 17.576 12.6709C17.5499 12.6786 17.5254 12.6879 17.4993 12.6971C17.4947 12.6987 17.4916 12.7002 17.487 12.7017C17.3812 12.7403 17.2753 12.7866 17.1725 12.8406C17.1541 12.8499 17.1357 12.8591 17.1188 12.8699C17.082 12.89 17.0452 12.9116 17.0099 12.9347C17.0084 12.9347 17.0068 12.9363 17.0053 12.9378C16.9792 12.9532 16.9547 12.9702 16.9301 12.9872C16.9301 12.9872 16.9286 12.9872 16.9271 12.9887C16.9117 12.9995 16.8964 13.0088 16.8826 13.0196C16.8688 13.0288 16.8565 13.0381 16.8427 13.0489C16.8258 13.0613 16.8089 13.0736 16.7936 13.0859C16.5558 13.268 16.3472 13.4948 16.18 13.7648L14.8637 15.8941L17.8767 20.7806C17.9887 20.6356 18.162 20.543 18.3568 20.543C18.5655 20.543 18.748 20.6479 18.8585 20.8084C18.8646 20.8176 18.8708 20.8269 18.8754 20.8361C18.8922 20.8624 18.9091 20.8901 18.926 20.9179C20.4448 20.7451 21.9267 21.1355 23.0159 22.0072C24.0821 21.4826 25.2158 21.154 26.3572 21.0491C26.394 20.9873 26.4323 20.9272 26.4692 20.867C26.4722 20.8608 26.4768 20.8547 26.4799 20.85C26.5858 20.671 26.779 20.5522 27.0015 20.5522C27.2055 20.5522 27.385 20.6541 27.4955 20.8084C27.5108 20.83 27.5246 20.8531 27.5384 20.8778L27.6305 21.0259C28.8685 21.0923 30.1142 21.4209 31.3445 22.0072C31.4366 22.0504 31.5286 22.0967 31.6207 22.143C32.2266 21.7511 32.8081 21.532 33.2345 21.4117C33.4631 21.3469 33.6595 21.3067 33.8175 21.2821L29.252 13.8929L29.2459 13.8883Z" fill="#1B5849"/>
</svg>
