<svg width="91" height="38" viewBox="0 0 91 38" fill="none" xmlns="http://www.w3.org/2000/svg">
<path d="M66.9483 23.7931C66.8471 23.9613 66.7723 24.1516 66.7371 24.3552C66.6887 24.3552 66.6403 24.3596 66.5963 24.3684C66.7019 24.1914 66.8119 24.0188 66.9175 23.8462C66.9263 23.8285 66.9395 23.8108 66.9483 23.7975V23.7931Z" fill="#89BC66"/>
<path d="M20.2024 23.7843C20.11 23.9392 20.0396 24.1074 20 24.2888C19.9648 24.2888 19.9252 24.2888 19.89 24.2933L20.2024 23.7843Z" fill="#89BC66"/>
<path d="M70.2443 24.2976C70.2091 24.2976 70.1738 24.2976 70.1342 24.2976C70.099 24.1472 70.0462 24.0055 69.9802 23.8772L70.2443 24.3021V24.2976Z" fill="#89BC66"/>
<path d="M45.2761 23.9923C45.2761 23.9923 45.2585 23.9923 45.2541 23.9923C45.2189 23.9126 45.1793 23.8329 45.1309 23.7577C45.1793 23.8329 45.2277 23.9126 45.2761 23.9923Z" fill="#89BC66"/>
<path d="M23.5643 24.3818C23.5159 24.3773 23.4675 24.3729 23.4147 24.3685C23.3751 24.156 23.3003 23.9657 23.1947 23.7887L23.5599 24.3818H23.5643Z" fill="#89BC66"/>
<path d="M2.76788 31.0072C1.9582 31.6224 1.16172 32.2774 0.38724 32.9634C0.0132028 31.8437 -0.0968082 30.6399 0.0924107 29.4537C0.748076 29.7414 1.73818 30.2415 2.76788 31.0116V31.0072Z" fill="#89BC66"/>
<path d="M18.8515 25.9707L17.5093 28.1393C14.4334 28.7191 11.4719 29.9893 8.92849 31.857C8.64686 32.0606 8.36963 32.2775 8.0968 32.4988C6.50824 33.7911 5.1045 35.3623 3.92959 37.137C3.77117 37.0529 3.62156 36.9688 3.47194 36.8759C2.46864 36.2474 1.67216 35.4198 1.0957 34.4771C1.95379 33.7026 2.93069 32.8838 4.0176 32.0695C4.44444 31.7552 4.88448 31.4366 5.33773 31.1268C6.23542 30.516 7.19031 29.9185 8.20681 29.3609C8.71726 29.082 9.24092 28.8121 9.78217 28.5509C12.4752 27.2586 15.5247 26.2805 18.8515 25.9707Z" fill="#89BC66"/>
<path d="M41.1881 24.9217C39.3751 25.5192 37.5666 26.338 35.7756 27.3692C35.7404 27.3869 35.7052 27.409 35.67 27.4267C35.3443 27.6126 35.0231 27.8118 34.6975 28.0109C34.5303 27.9135 34.3586 27.8206 34.1914 27.7277C30.8383 25.891 27.2167 24.7358 23.5688 24.3729L23.2035 23.7798C23.1859 23.7489 23.1683 23.7179 23.1463 23.6869C22.8339 23.2266 22.3014 22.9212 21.703 22.9212C21.1045 22.9212 20.5721 23.2266 20.2596 23.6869C20.2376 23.7179 20.22 23.7489 20.2024 23.7798L19.89 24.2888C16.2992 24.4658 12.6821 25.4085 9.11772 27.1036C8.85369 27.2275 8.58967 27.3603 8.32564 27.4931C6.58747 26.3689 4.9197 25.7405 3.69638 25.3953C3.08912 25.2271 2.56106 25.1164 2.12982 25.0412L15.4588 3.47865C15.5996 3.24851 15.7536 3.03607 15.9164 2.82806C16.6601 1.87209 17.5974 1.14183 18.6403 0.668266C18.7503 0.615156 18.8603 0.570898 18.9747 0.52664C19.0319 0.504511 19.0891 0.477956 19.1463 0.460253C19.1551 0.460253 19.1639 0.451401 19.1771 0.446975C19.2695 0.411569 19.3663 0.380588 19.4588 0.349608C19.494 0.33633 19.5292 0.327479 19.56 0.318627C19.6304 0.296498 19.7052 0.274369 19.7756 0.256666C19.8284 0.243388 19.8812 0.230111 19.9296 0.216833C19.9868 0.203556 20.044 0.185853 20.1012 0.177001C20.1672 0.163724 20.2288 0.150446 20.2904 0.137169C20.3388 0.128317 20.3872 0.119466 20.4357 0.110614C20.5061 0.0973365 20.5765 0.0884849 20.6469 0.0752075C20.6953 0.0707817 20.7393 0.0619301 20.7833 0.0575042C20.8537 0.0486526 20.9241 0.039801 20.9945 0.0353752C21.0429 0.0309494 21.0913 0.0265236 21.1397 0.0220978C21.2057 0.017672 21.2717 0.0132461 21.3421 0.00882034C21.3949 0.00882034 21.4478 0.00439453 21.505 0.00439453C21.5666 0.00439453 21.6282 0.00439453 21.6898 0.00439453C21.7514 0.00439453 21.813 0.00439453 21.8702 0.00439453C21.923 0.00439453 21.9802 0.00439453 22.033 0.00882034C22.099 0.00882034 22.165 0.0132461 22.2354 0.0220978C22.2838 0.0265236 22.3322 0.0309494 22.3806 0.0353752C22.4511 0.039801 22.5215 0.0486526 22.5919 0.0575042C22.6403 0.0619301 22.6843 0.0707817 22.7283 0.0752075C22.7987 0.0840591 22.8691 0.0973365 22.9395 0.110614C22.9879 0.119466 23.0363 0.128317 23.0847 0.137169C23.1507 0.150446 23.2123 0.163724 23.2739 0.177001C23.3311 0.190279 23.3883 0.203556 23.4456 0.216833C23.4984 0.230111 23.5512 0.243388 23.5996 0.256666C23.6744 0.274369 23.7448 0.296498 23.8152 0.318627C23.8504 0.327479 23.8856 0.340756 23.9164 0.349608C24.0088 0.380588 24.1056 0.411569 24.198 0.446975C24.2068 0.446975 24.22 0.455827 24.2288 0.460253L24.4137 0.535492C24.4665 0.553195 24.5149 0.575324 24.5633 0.597453C24.6205 0.619582 24.6733 0.646137 24.7305 0.672692C24.7877 0.699247 24.8405 0.725801 24.8977 0.752356C25.0209 0.809892 25.1441 0.876279 25.2629 0.947092C25.3465 0.995776 25.4258 1.04446 25.5094 1.09314C25.5226 1.102 25.5402 1.11085 25.549 1.11527C25.5622 1.1197 25.571 1.12855 25.5798 1.1374C26.4995 1.71276 27.3047 2.50055 27.9164 3.49193L32.6425 11.1442L41.1661 24.935L41.1881 24.9217Z" fill="#0B9E7F"/>
<path d="M6.69745 28.3916C5.82616 28.8961 4.96808 29.4405 4.11879 30.0291C2.71505 28.905 1.33331 28.2323 0.514832 27.8915C0.673247 27.4887 0.871267 27.0904 1.10449 26.7098L1.2057 26.546C2.2486 26.6567 4.39162 27.0904 6.69305 28.396L6.69745 28.3916Z" fill="#89BC66"/>
<path d="M16.3256 30.0557L13.5798 34.4992C11.8328 37.3273 8.49286 38.5577 5.44775 37.7345C6.49506 36.212 7.72278 34.8666 9.10012 33.7424C9.35094 33.5388 9.60617 33.3396 9.8658 33.1493C11.8108 31.7242 14.0154 30.6753 16.3256 30.0513V30.0557Z" fill="#89BC66"/>
<path d="M89.7162 33.0386C88.9153 32.3261 88.088 31.6489 87.2476 31.0072C88.3345 30.1973 89.3774 29.6839 90.0286 29.405C90.2267 30.631 90.1122 31.8835 89.7118 33.0386H89.7162Z" fill="#89BC66"/>
<path d="M88.9989 34.5434C88.4224 35.4595 87.6391 36.265 86.6623 36.8758C86.4818 36.9864 86.3014 37.0882 86.1166 37.1856C84.9329 35.3887 83.5203 33.8043 81.9186 32.4987C81.6458 32.2774 81.3641 32.0605 81.0869 31.8569C78.5786 30.0158 75.6655 28.7589 72.6336 28.1658L71.2827 25.9839C74.5654 26.307 77.5709 27.2806 80.2332 28.5553C80.7701 28.812 81.2981 29.082 81.8086 29.3652C82.8251 29.9229 83.78 30.5203 84.6776 31.1267C85.1353 31.4365 85.5753 31.7551 85.9978 32.0694C87.1155 32.9059 88.1188 33.7512 88.9945 34.5434H88.9989Z" fill="#89BC66"/>
<path d="M84.5808 37.7654C81.5665 38.5311 78.2794 37.3007 76.55 34.5036L73.8262 30.0955C76.0836 30.7239 78.2398 31.7596 80.1408 33.1537C80.4004 33.3396 80.6557 33.5432 80.9109 33.7468C82.297 34.8753 83.5291 36.2341 84.5808 37.7654Z" fill="#89BC66"/>
<path d="M89.5974 27.8472C88.7965 28.1747 87.3575 28.8563 85.8966 30.0247C85.0473 29.4361 84.1892 28.8873 83.3179 28.3872C85.703 27.0373 87.9208 26.6168 88.9153 26.5283L89.0253 26.7054C89.2541 27.0727 89.4433 27.4577 89.6018 27.8472H89.5974Z" fill="#89BC66"/>
<path d="M52.1936 30.069C51.5247 30.5691 50.8735 31.0958 50.2398 31.6534C49.5401 30.8701 48.9329 29.9805 48.3652 29.0643H48.3784C49.5005 29.0997 50.9483 29.321 52.1936 30.0646V30.069Z" fill="#89BC66"/>
<path d="M62.8603 30.3301C61.7162 31.9455 60.3564 33.3618 58.4334 34.0433C57.6765 34.3133 56.8889 34.4417 56.1056 34.4549C56.594 33.9769 57.1089 33.5255 57.6501 33.1095C59.2431 31.888 60.9945 30.9585 62.8603 30.3301Z" fill="#89BC66"/>
<path d="M55.4455 27.9445C54.8163 28.2986 54.2002 28.6792 53.5929 29.082C52.2464 28.0817 50.4906 27.5285 48.4268 27.4621C48.0924 27.4488 47.7536 27.4577 47.4103 27.471C47.0319 26.8204 46.6578 26.1786 46.2706 25.5679C46.2618 25.5502 46.2486 25.5325 46.2398 25.5192C49.6413 25.2935 52.9065 26.1521 55.4455 27.9445Z" fill="#89BC66"/>
<path d="M42.4246 34.2734C42.1562 34.7426 41.835 35.1852 41.4609 35.5968C41.0209 36.0792 40.5104 36.5129 39.9296 36.8758C39.4851 37.1546 39.0231 37.3759 38.5478 37.5485C37.9978 37.7477 37.4301 37.8805 36.8625 37.9424C36.0132 38.0354 35.1595 37.9779 34.3366 37.7831C34.6754 37.2166 35.0495 36.6634 35.4499 36.1279C35.7756 35.6941 36.1188 35.2737 36.4796 34.8665C37.1441 34.123 37.8658 33.4237 38.6314 32.7819C39.0495 32.4367 39.4851 32.1048 39.934 31.795C40.5632 31.3613 41.2189 30.9629 41.8966 30.6133C42.1914 30.4628 42.4554 30.3301 42.7018 30.215C42.9175 30.1132 43.1375 30.0202 43.3663 29.9362C43.4983 31.4454 43.1727 32.9634 42.4246 34.2734Z" fill="#89BC66"/>
<path d="M29.9318 31.5383C29.5138 31.8968 29.0957 32.2685 28.6733 32.6492L27.2651 30.3699C28.1804 30.6841 29.0693 31.0736 29.9274 31.5339L29.9318 31.5383Z" fill="#89BC66"/>
<path d="M43.0451 28.3429C42.7019 28.4668 42.3631 28.6084 42.0374 28.7545C41.769 28.8784 41.483 29.02 41.1661 29.1838C40.3036 29.6308 39.472 30.1486 38.6755 30.7284C38.231 31.0515 37.7998 31.3878 37.3818 31.7463C36.6821 32.3438 36.0176 32.9944 35.3972 33.6804C35.0363 34.0787 34.6931 34.4948 34.3675 34.9152C33.7954 35.6543 33.2761 36.4288 32.8141 37.2255C31.6216 36.6368 30.5699 35.7163 29.8174 34.4992L29.5314 34.0345C30.1474 33.468 30.7591 32.9236 31.3796 32.4058C31.8152 32.0429 32.2508 31.6932 32.6909 31.3569C33.3686 30.8346 34.0506 30.3478 34.7327 29.8963C35.0627 29.6795 35.3884 29.467 35.7228 29.2634C35.8944 29.1572 36.066 29.0554 36.2332 28.9536C36.3565 28.8828 36.4753 28.812 36.5985 28.7412C36.6337 28.7235 36.6689 28.7014 36.6997 28.6837C37.8438 28.0331 38.9923 27.471 40.1452 27.0107C40.7833 26.754 41.4214 26.5239 42.0594 26.3247L42.2926 26.7009C42.6183 27.2276 42.8691 27.7764 43.0495 28.3385L43.0451 28.3429Z" fill="#89BC66"/>
<path d="M33.1881 29.0112C32.5456 29.4626 31.9032 29.9406 31.2607 30.4452C29.6193 29.4848 27.8548 28.7766 26.011 28.3341L24.6469 26.13C27.5775 26.5726 30.4686 27.5551 33.1881 29.0112Z" fill="#89BC66"/>
<path d="M65.5182 26.1123C65.3246 26.4221 65.1353 26.7275 64.9461 27.0373C64.6909 27.4533 64.4357 27.8738 64.176 28.3031C61.4654 28.9315 58.9307 30.1177 56.6865 31.8349C55.7536 32.5474 54.9131 33.3441 54.1254 34.2027C53.3642 33.9947 52.6337 33.6627 51.9648 33.2069C51.7668 33.0741 51.582 32.9281 51.3928 32.7731C53.0693 31.3171 54.8779 30.0646 56.7701 29.0422C56.9945 28.9227 57.2189 28.8032 57.4434 28.6926C60.0264 27.3914 62.7503 26.5151 65.5094 26.1167L65.5182 26.1123Z" fill="#89BC66"/>
<path d="M74.8911 3.83718L74.6711 3.47869C73.4213 1.45609 71.3575 0.252271 69.1705 0.0309807C69.0957 0.0265549 69.0253 0.0177032 68.9505 0.0132774C68.8757 0.00885162 68.8053 0.00442581 68.7305 0C68.7085 0 68.6821 0 68.6601 0C68.5853 0 68.5148 0 68.44 0C68.3784 0 68.3168 0 68.2552 0C68.2288 0 68.2024 0 68.1804 0C68.1232 0 68.0704 0.00442581 68.0132 0.00885162C67.8944 0.0177032 67.7756 0.0265549 67.6568 0.0398323C67.5688 0.0486839 67.4851 0.0619613 67.3971 0.0752388C67.3795 0.0752388 67.3575 0.0796646 67.3399 0.0840904C67.3267 0.0840904 67.3135 0.0885162 67.3003 0.0885162C67.2167 0.101794 67.1331 0.119497 67.0495 0.132774C66.9615 0.150478 66.8735 0.168181 66.7899 0.19031C66.6975 0.212439 66.6095 0.234568 66.5171 0.261123C66.3542 0.305381 66.1958 0.354065 66.0418 0.4116C66.011 0.420452 65.9846 0.429304 65.9582 0.442581C65.879 0.473562 65.7998 0.500116 65.725 0.531097C65.703 0.539949 65.6854 0.5488 65.6634 0.557652C65.5974 0.584207 65.5314 0.615188 65.4653 0.641742C65.3861 0.677149 65.3025 0.716981 65.2189 0.756813C65.2189 0.756813 65.2101 0.761239 65.2057 0.761239C65.1353 0.796646 65.0605 0.832052 64.9901 0.871884L64.9285 0.907291C64.8537 0.947123 64.7833 0.986955 64.7085 1.03121C64.6249 1.0799 64.5457 1.12858 64.4664 1.18169C64.3916 1.23038 64.3124 1.28348 64.2376 1.33659C64.2376 1.33659 64.2376 1.33659 64.2332 1.34102C64.1628 1.3897 64.0924 1.44281 64.0264 1.4915C63.934 1.56231 63.846 1.63312 63.7536 1.70836C63.6876 1.76147 63.626 1.81901 63.56 1.87654C63.4895 1.94293 63.4191 2.00489 63.3487 2.0757C62.9263 2.4873 62.5435 2.95644 62.2222 3.48311L62.0022 3.8416L56.0528 13.4677L49.8834 3.48754C49.6282 3.07151 49.3377 2.69532 49.0209 2.3501C48.9153 2.23503 48.8053 2.12439 48.6953 2.01817C48.044 1.39413 47.2915 0.907291 46.4818 0.570929C46.4114 0.539949 46.341 0.513394 46.2706 0.486839C46.1298 0.429304 45.9846 0.38062 45.8438 0.336362C45.8218 0.331936 45.8042 0.323084 45.7822 0.318658C45.703 0.296529 45.6194 0.269974 45.5402 0.247845C45.4917 0.234568 45.4477 0.225716 45.3993 0.212439C45.3421 0.199161 45.2893 0.185884 45.2321 0.172607C45.1749 0.159329 45.1221 0.146052 45.0649 0.1372C45.0165 0.128348 44.9725 0.119497 44.9285 0.110645C44.8669 0.0973678 44.8053 0.0885162 44.7393 0.0796646C44.7085 0.0752388 44.6733 0.070813 44.6381 0.0663871C44.5149 0.0486839 44.3916 0.0354065 44.264 0.0265549C44.2156 0.0265549 44.1672 0.0177032 44.1188 0.0132774C44.066 0.00885162 44.0088 0.00885162 43.956 0.00442581C43.8988 0.00442581 43.8416 0 43.7844 0C43.736 0 43.6876 0 43.6392 0C43.5732 0 43.5071 0 43.4411 0C43.4015 0 43.3619 0 43.3179 0.00442581C43.2387 0.00442581 43.1595 0.0132774 43.0803 0.0177032C43.0495 0.0177032 43.0231 0.022129 42.9967 0.022129C42.8295 0.0398323 42.6579 0.0575355 42.495 0.0840904C42.4378 0.092942 42.385 0.101794 42.3278 0.115071C42.3102 0.115071 42.2926 0.119497 42.275 0.123923C42.187 0.141626 42.099 0.159329 42.011 0.181458C41.9714 0.19031 41.9318 0.199161 41.8878 0.212439C41.8262 0.230142 41.7646 0.24342 41.703 0.261123C41.6458 0.278826 41.5886 0.292103 41.5358 0.309807C41.4961 0.323084 41.4565 0.331936 41.4169 0.345213C41.3421 0.367342 41.2717 0.393897 41.1969 0.420452C41.1837 0.424878 41.1749 0.429304 41.1617 0.433729C40.8581 0.544375 40.5545 0.677149 40.2596 0.832052C40.2068 0.858607 40.154 0.885162 40.1056 0.916143C40 0.973678 39.8944 1.03564 39.7932 1.10203C39.7888 1.10203 39.7844 1.10645 39.78 1.11088C39.7052 1.15514 39.6348 1.20382 39.5644 1.2525C39.5644 1.2525 39.56 1.2525 39.5556 1.25693C39.5115 1.28791 39.4675 1.31447 39.4279 1.34545C39.3883 1.372 39.3531 1.39856 39.3135 1.42954C39.2651 1.46494 39.2167 1.50035 39.1727 1.53576C38.4906 2.058 37.8922 2.7086 37.4125 3.48311L33.637 9.59073L42.2794 23.6073C42.6007 23.1912 43.0979 22.9257 43.6568 22.9257C44.2552 22.9257 44.7789 23.2266 45.0957 23.6869C45.1133 23.7135 45.1309 23.74 45.1441 23.7666C45.1925 23.8418 45.2409 23.9215 45.2893 24.0012C49.6458 23.5055 53.8966 24.6252 57.0209 27.1258C60.0792 25.621 63.3311 24.6783 66.6051 24.3774C66.7107 24.2003 66.8207 24.0277 66.9263 23.8551C66.9351 23.8374 66.9483 23.8197 66.9571 23.8064C67.2607 23.293 67.8152 22.9522 68.4532 22.9522C69.0385 22.9522 69.5534 23.2444 69.8702 23.6869C69.9142 23.7489 69.9538 23.8153 69.9934 23.8861L70.2574 24.311C73.8086 24.5013 77.3817 25.444 80.9109 27.1258C81.1749 27.2497 81.4389 27.3825 81.703 27.5153C83.4411 26.3911 85.1089 25.7626 86.3322 25.4174C86.9879 25.2315 87.5512 25.1165 88.0044 25.0457L74.9087 3.85045L74.8911 3.83718Z" fill="#1B5849"/>
<path d="M66.9483 23.7931C66.8471 23.9613 66.7723 24.1516 66.7371 24.3552C66.6887 24.3552 66.6403 24.3596 66.5963 24.3684C66.7019 24.1914 66.8119 24.0188 66.9175 23.8462C66.9263 23.8285 66.9395 23.8108 66.9483 23.7975V23.7931Z" fill="#89BC66"/>
<path d="M20.2024 23.7843C20.11 23.9392 20.0396 24.1074 20 24.2888C19.9648 24.2888 19.9252 24.2888 19.89 24.2933L20.2024 23.7843Z" fill="#89BC66"/>
<path d="M70.2443 24.2976C70.2091 24.2976 70.1738 24.2976 70.1342 24.2976C70.099 24.1472 70.0462 24.0055 69.9802 23.8772L70.2443 24.3021V24.2976Z" fill="#89BC66"/>
<path d="M45.2761 23.9923C45.2761 23.9923 45.2585 23.9923 45.2541 23.9923C45.2189 23.9126 45.1793 23.8329 45.1309 23.7577C45.1793 23.8329 45.2277 23.9126 45.2761 23.9923Z" fill="#89BC66"/>
<path d="M23.5643 24.3818C23.5159 24.3773 23.4675 24.3729 23.4147 24.3685C23.3751 24.156 23.3003 23.9657 23.1947 23.7887L23.5599 24.3818H23.5643Z" fill="#89BC66"/>
<path d="M18.8515 25.9707L17.5093 28.1393C14.4334 28.7191 11.4719 29.9893 8.92849 31.857C8.64686 32.0606 8.36963 32.2775 8.0968 32.4988C6.50824 33.7911 5.1045 35.3623 3.92959 37.137C3.77117 37.0529 3.62156 36.9688 3.47194 36.8759C2.46864 36.2474 1.67216 35.4198 1.0957 34.4771C1.95379 33.7026 2.93069 32.8838 4.0176 32.0695C4.44444 31.7552 4.88448 31.4366 5.33773 31.1268C6.23542 30.516 7.19031 29.9185 8.20681 29.3609C8.71726 29.082 9.24092 28.8121 9.78217 28.5509C12.4752 27.2586 15.5247 26.2805 18.8515 25.9707Z" fill="#89BC66"/>
<path d="M41.1881 24.9217C39.3751 25.5192 37.5666 26.338 35.7756 27.3692C35.7404 27.3869 35.7052 27.409 35.67 27.4267C35.3443 27.6126 35.0231 27.8118 34.6975 28.0109C34.5303 27.9135 34.3586 27.8206 34.1914 27.7277C30.8383 25.891 27.2167 24.7358 23.5688 24.3729L23.2035 23.7798C23.1859 23.7489 23.1683 23.7179 23.1463 23.6869C22.8339 23.2266 22.3014 22.9212 21.703 22.9212C21.1045 22.9212 20.5721 23.2266 20.2596 23.6869C20.2376 23.7179 20.22 23.7489 20.2024 23.7798L19.89 24.2888C16.2992 24.4658 12.6821 25.4085 9.11772 27.1036C8.85369 27.2275 8.58967 27.3603 8.32564 27.4931C6.58747 26.3689 4.9197 25.7405 3.69638 25.3953C3.08912 25.2271 2.56106 25.1164 2.12982 25.0412L15.4588 3.47865C15.5996 3.24851 15.7536 3.03607 15.9164 2.82806C16.6601 1.87209 17.5974 1.14183 18.6403 0.668266C18.7503 0.615156 18.8603 0.570898 18.9747 0.52664C19.0319 0.504511 19.0891 0.477956 19.1463 0.460253C19.1551 0.460253 19.1639 0.451401 19.1771 0.446975C19.2695 0.411569 19.3663 0.380588 19.4588 0.349608C19.494 0.33633 19.5292 0.327479 19.56 0.318627C19.6304 0.296498 19.7052 0.274369 19.7756 0.256666C19.8284 0.243388 19.8812 0.230111 19.9296 0.216833C19.9868 0.203556 20.044 0.185853 20.1012 0.177001C20.1672 0.163724 20.2288 0.150446 20.2904 0.137169C20.3388 0.128317 20.3872 0.119466 20.4357 0.110614C20.5061 0.0973365 20.5765 0.0884849 20.6469 0.0752075C20.6953 0.0707817 20.7393 0.0619301 20.7833 0.0575042C20.8537 0.0486526 20.9241 0.039801 20.9945 0.0353752C21.0429 0.0309494 21.0913 0.0265236 21.1397 0.0220978C21.2057 0.017672 21.2717 0.0132461 21.3421 0.00882034C21.3949 0.00882034 21.4478 0.00439453 21.505 0.00439453C21.5666 0.00439453 21.6282 0.00439453 21.6898 0.00439453C21.7514 0.00439453 21.813 0.00439453 21.8702 0.00439453C21.923 0.00439453 21.9802 0.00439453 22.033 0.00882034C22.099 0.00882034 22.165 0.0132461 22.2354 0.0220978C22.2838 0.0265236 22.3322 0.0309494 22.3806 0.0353752C22.4511 0.039801 22.5215 0.0486526 22.5919 0.0575042C22.6403 0.0619301 22.6843 0.0707817 22.7283 0.0752075C22.7987 0.0840591 22.8691 0.0973365 22.9395 0.110614C22.9879 0.119466 23.0363 0.128317 23.0847 0.137169C23.1507 0.150446 23.2123 0.163724 23.2739 0.177001C23.3311 0.190279 23.3883 0.203556 23.4456 0.216833C23.4984 0.230111 23.5512 0.243388 23.5996 0.256666C23.6744 0.274369 23.7448 0.296498 23.8152 0.318627C23.8504 0.327479 23.8856 0.340756 23.9164 0.349608C24.0088 0.380588 24.1056 0.411569 24.198 0.446975C24.2068 0.446975 24.22 0.455827 24.2288 0.460253L24.4137 0.535492C24.4665 0.553195 24.5149 0.575324 24.5633 0.597453C24.6205 0.619582 24.6733 0.646137 24.7305 0.672692C24.7877 0.699247 24.8405 0.725801 24.8977 0.752356C25.0209 0.809892 25.1441 0.876279 25.2629 0.947092C25.3465 0.995776 25.4258 1.04446 25.5094 1.09314C25.5226 1.102 25.5402 1.11085 25.549 1.11527C25.5622 1.1197 25.571 1.12855 25.5798 1.1374C26.4995 1.71276 27.3047 2.50055 27.9164 3.49193L32.6425 11.1442L41.1661 24.935L41.1881 24.9217Z" fill="#0B9E7F"/>
<path d="M6.69745 28.3916C5.82616 28.8961 4.96808 29.4405 4.11879 30.0291C2.71505 28.905 1.33331 28.2323 0.514832 27.8915C0.673247 27.4887 0.871267 27.0904 1.10449 26.7098L1.2057 26.546C2.2486 26.6567 4.39162 27.0904 6.69305 28.396L6.69745 28.3916Z" fill="#89BC66"/>
<path d="M16.3256 30.0557L13.5798 34.4992C11.8328 37.3273 8.49286 38.5577 5.44775 37.7345C6.49506 36.212 7.72278 34.8666 9.10012 33.7424C9.35094 33.5388 9.60617 33.3396 9.8658 33.1493C11.8108 31.7242 14.0154 30.6753 16.3256 30.0513V30.0557Z" fill="#89BC66"/>
<path d="M89.7162 33.0386C88.9153 32.3261 88.088 31.6489 87.2476 31.0072C88.3345 30.1973 89.3774 29.6839 90.0286 29.405C90.2267 30.631 90.1122 31.8835 89.7118 33.0386H89.7162Z" fill="#89BC66"/>
<path d="M88.9989 34.5434C88.4224 35.4595 87.6391 36.265 86.6623 36.8758C86.4818 36.9864 86.3014 37.0882 86.1166 37.1856C84.9329 35.3887 83.5203 33.8043 81.9186 32.4987C81.6458 32.2774 81.3641 32.0605 81.0869 31.8569C78.5786 30.0158 75.6655 28.7589 72.6336 28.1658L71.2827 25.9839C74.5654 26.307 77.5709 27.2806 80.2332 28.5553C80.7701 28.812 81.2981 29.082 81.8086 29.3652C82.8251 29.9229 83.78 30.5203 84.6776 31.1267C85.1353 31.4365 85.5753 31.7551 85.9978 32.0694C87.1155 32.9059 88.1188 33.7512 88.9945 34.5434H88.9989Z" fill="#89BC66"/>
<path d="M84.5808 37.7654C81.5665 38.5311 78.2794 37.3007 76.55 34.5036L73.8262 30.0955C76.0836 30.7239 78.2398 31.7596 80.1408 33.1537C80.4004 33.3396 80.6557 33.5432 80.9109 33.7468C82.297 34.8753 83.5291 36.2341 84.5808 37.7654Z" fill="#89BC66"/>
<path d="M89.5974 27.8472C88.7965 28.1747 87.3575 28.8563 85.8966 30.0247C85.0473 29.4361 84.1892 28.8873 83.3179 28.3872C85.703 27.0373 87.9208 26.6168 88.9153 26.5283L89.0253 26.7054C89.2541 27.0727 89.4433 27.4577 89.6018 27.8472H89.5974Z" fill="#89BC66"/>
<path d="M52.1936 30.069C51.5247 30.5691 50.8735 31.0958 50.2398 31.6534C49.5401 30.8701 48.9329 29.9805 48.3652 29.0643H48.3784C49.5005 29.0997 50.9483 29.321 52.1936 30.0646V30.069Z" fill="#89BC66"/>
<path d="M62.8603 30.3301C61.7162 31.9455 60.3564 33.3618 58.4334 34.0433C57.6765 34.3133 56.8889 34.4417 56.1056 34.4549C56.594 33.9769 57.1089 33.5255 57.6501 33.1095C59.2431 31.888 60.9945 30.9585 62.8603 30.3301Z" fill="#89BC66"/>
<path d="M55.4455 27.9445C54.8163 28.2986 54.2002 28.6792 53.5929 29.082C52.2464 28.0817 50.4906 27.5285 48.4268 27.4621C48.0924 27.4488 47.7536 27.4577 47.4103 27.471C47.0319 26.8204 46.6578 26.1786 46.2706 25.5679C46.2618 25.5502 46.2486 25.5325 46.2398 25.5192C49.6413 25.2935 52.9065 26.1521 55.4455 27.9445Z" fill="#89BC66"/>
<path d="M42.4246 34.2734C42.1562 34.7426 41.835 35.1852 41.4609 35.5968C41.0209 36.0792 40.5104 36.5129 39.9296 36.8758C39.4851 37.1546 39.0231 37.3759 38.5478 37.5485C37.9978 37.7477 37.4301 37.8805 36.8625 37.9424C36.0132 38.0354 35.1595 37.9779 34.3366 37.7831C34.6754 37.2166 35.0495 36.6634 35.4499 36.1279C35.7756 35.6941 36.1188 35.2737 36.4796 34.8665C37.1441 34.123 37.8658 33.4237 38.6314 32.7819C39.0495 32.4367 39.4851 32.1048 39.934 31.795C40.5632 31.3613 41.2189 30.9629 41.8966 30.6133C42.1914 30.4628 42.4554 30.3301 42.7018 30.215C42.9175 30.1132 43.1375 30.0202 43.3663 29.9362C43.4983 31.4454 43.1727 32.9634 42.4246 34.2734Z" fill="#89BC66"/>
<path d="M29.9318 31.5383C29.5138 31.8968 29.0957 32.2685 28.6733 32.6492L27.2651 30.3699C28.1804 30.6841 29.0693 31.0736 29.9274 31.5339L29.9318 31.5383Z" fill="#89BC66"/>
<path d="M43.0451 28.3429C42.7019 28.4668 42.3631 28.6084 42.0374 28.7545C41.769 28.8784 41.483 29.02 41.1661 29.1838C40.3036 29.6308 39.472 30.1486 38.6755 30.7284C38.231 31.0515 37.7998 31.3878 37.3818 31.7463C36.6821 32.3438 36.0176 32.9944 35.3972 33.6804C35.0363 34.0787 34.6931 34.4948 34.3675 34.9152C33.7954 35.6543 33.2761 36.4288 32.8141 37.2255C31.6216 36.6368 30.5699 35.7163 29.8174 34.4992L29.5314 34.0345C30.1474 33.468 30.7591 32.9236 31.3796 32.4058C31.8152 32.0429 32.2508 31.6932 32.6909 31.3569C33.3686 30.8346 34.0506 30.3478 34.7327 29.8963C35.0627 29.6795 35.3884 29.467 35.7228 29.2634C35.8944 29.1572 36.066 29.0554 36.2332 28.9536C36.3565 28.8828 36.4753 28.812 36.5985 28.7412C36.6337 28.7235 36.6689 28.7014 36.6997 28.6837C37.8438 28.0331 38.9923 27.471 40.1452 27.0107C40.7833 26.754 41.4214 26.5239 42.0594 26.3247L42.2926 26.7009C42.6183 27.2276 42.8691 27.7764 43.0495 28.3385L43.0451 28.3429Z" fill="#89BC66"/>
<path d="M33.1881 29.0112C32.5456 29.4626 31.9032 29.9406 31.2607 30.4452C29.6193 29.4848 27.8548 28.7766 26.011 28.3341L24.6469 26.13C27.5775 26.5726 30.4686 27.5551 33.1881 29.0112Z" fill="#89BC66"/>
<path d="M65.5182 26.1123C65.3246 26.4221 65.1353 26.7275 64.9461 27.0373C64.6909 27.4533 64.4357 27.8738 64.176 28.3031C61.4654 28.9315 58.9307 30.1177 56.6865 31.8349C55.7536 32.5474 54.9131 33.3441 54.1254 34.2027C53.3642 33.9947 52.6337 33.6627 51.9648 33.2069C51.7668 33.0741 51.582 32.9281 51.3928 32.7731C53.0693 31.3171 54.8779 30.0646 56.7701 29.0422C56.9945 28.9227 57.2189 28.8032 57.4434 28.6926C60.0264 27.3914 62.7503 26.5151 65.5094 26.1167L65.5182 26.1123Z" fill="#89BC66"/>
<path d="M74.8911 3.83718L74.6711 3.47869C73.4213 1.45609 71.3575 0.252271 69.1705 0.0309807C69.0957 0.0265549 69.0253 0.0177032 68.9505 0.0132774C68.8757 0.00885162 68.8053 0.00442581 68.7305 0C68.7085 0 68.6821 0 68.6601 0C68.5853 0 68.5148 0 68.44 0C68.3784 0 68.3168 0 68.2552 0C68.2288 0 68.2024 0 68.1804 0C68.1232 0 68.0704 0.00442581 68.0132 0.00885162C67.8944 0.0177032 67.7756 0.0265549 67.6568 0.0398323C67.5688 0.0486839 67.4851 0.0619613 67.3971 0.0752388C67.3795 0.0752388 67.3575 0.0796646 67.3399 0.0840904C67.3267 0.0840904 67.3135 0.0885162 67.3003 0.0885162C67.2167 0.101794 67.1331 0.119497 67.0495 0.132774C66.9615 0.150478 66.8735 0.168181 66.7899 0.19031C66.6975 0.212439 66.6095 0.234568 66.5171 0.261123C66.3542 0.305381 66.1958 0.354065 66.0418 0.4116C66.011 0.420452 65.9846 0.429304 65.9582 0.442581C65.879 0.473562 65.7998 0.500116 65.725 0.531097C65.703 0.539949 65.6854 0.5488 65.6634 0.557652C65.5974 0.584207 65.5314 0.615188 65.4653 0.641742C65.3861 0.677149 65.3025 0.716981 65.2189 0.756813C65.2189 0.756813 65.2101 0.761239 65.2057 0.761239C65.1353 0.796646 65.0605 0.832052 64.9901 0.871884L64.9285 0.907291C64.8537 0.947123 64.7833 0.986955 64.7085 1.03121C64.6249 1.0799 64.5457 1.12858 64.4664 1.18169C64.3916 1.23038 64.3124 1.28348 64.2376 1.33659C64.2376 1.33659 64.2376 1.33659 64.2332 1.34102C64.1628 1.3897 64.0924 1.44281 64.0264 1.4915C63.934 1.56231 63.846 1.63312 63.7536 1.70836C63.6876 1.76147 63.626 1.81901 63.56 1.87654C63.4895 1.94293 63.4191 2.00489 63.3487 2.0757C62.9263 2.4873 62.5435 2.95644 62.2222 3.48311L62.0022 3.8416L56.0528 13.4677L49.8834 3.48754C49.6282 3.07151 49.3377 2.69532 49.0209 2.3501C48.9153 2.23503 48.8053 2.12439 48.6953 2.01817C48.044 1.39413 47.2915 0.907291 46.4818 0.570929C46.4114 0.539949 46.341 0.513394 46.2706 0.486839C46.1298 0.429304 45.9846 0.38062 45.8438 0.336362C45.8218 0.331936 45.8042 0.323084 45.7822 0.318658C45.703 0.296529 45.6194 0.269974 45.5402 0.247845C45.4917 0.234568 45.4477 0.225716 45.3993 0.212439C45.3421 0.199161 45.2893 0.185884 45.2321 0.172607C45.1749 0.159329 45.1221 0.146052 45.0649 0.1372C45.0165 0.128348 44.9725 0.119497 44.9285 0.110645C44.8669 0.0973678 44.8053 0.0885162 44.7393 0.0796646C44.7085 0.0752388 44.6733 0.070813 44.6381 0.0663871C44.5149 0.0486839 44.3916 0.0354065 44.264 0.0265549C44.2156 0.0265549 44.1672 0.0177032 44.1188 0.0132774C44.066 0.00885162 44.0088 0.00885162 43.956 0.00442581C43.8988 0.00442581 43.8416 0 43.7844 0C43.736 0 43.6876 0 43.6392 0C43.5732 0 43.5071 0 43.4411 0C43.4015 0 43.3619 0 43.3179 0.00442581C43.2387 0.00442581 43.1595 0.0132774 43.0803 0.0177032C43.0495 0.0177032 43.0231 0.022129 42.9967 0.022129C42.8295 0.0398323 42.6579 0.0575355 42.495 0.0840904C42.4378 0.092942 42.385 0.101794 42.3278 0.115071C42.3102 0.115071 42.2926 0.119497 42.275 0.123923C42.187 0.141626 42.099 0.159329 42.011 0.181458C41.9714 0.19031 41.9318 0.199161 41.8878 0.212439C41.8262 0.230142 41.7646 0.24342 41.703 0.261123C41.6458 0.278826 41.5886 0.292103 41.5358 0.309807C41.4961 0.323084 41.4565 0.331936 41.4169 0.345213C41.3421 0.367342 41.2717 0.393897 41.1969 0.420452C41.1837 0.424878 41.1749 0.429304 41.1617 0.433729C40.8581 0.544375 40.5545 0.677149 40.2596 0.832052C40.2068 0.858607 40.154 0.885162 40.1056 0.916143C40 0.973678 39.8944 1.03564 39.7932 1.10203C39.7888 1.10203 39.7844 1.10645 39.78 1.11088C39.7052 1.15514 39.6348 1.20382 39.5644 1.2525C39.5644 1.2525 39.56 1.2525 39.5556 1.25693C39.5115 1.28791 39.4675 1.31447 39.4279 1.34545C39.3883 1.372 39.3531 1.39856 39.3135 1.42954C39.2651 1.46494 39.2167 1.50035 39.1727 1.53576C38.4906 2.058 37.8922 2.7086 37.4125 3.48311L33.637 9.59073L42.2794 23.6073C42.6007 23.1912 43.0979 22.9257 43.6568 22.9257C44.2552 22.9257 44.7789 23.2266 45.0957 23.6869C45.1133 23.7135 45.1309 23.74 45.1441 23.7666C45.1925 23.8418 45.2409 23.9215 45.2893 24.0012C49.6458 23.5055 53.8966 24.6252 57.0209 27.1258C60.0792 25.621 63.3311 24.6783 66.6051 24.3774C66.7107 24.2003 66.8207 24.0277 66.9263 23.8551C66.9351 23.8374 66.9483 23.8197 66.9571 23.8064C67.2607 23.293 67.8152 22.9522 68.4532 22.9522C69.0385 22.9522 69.5534 23.2444 69.8702 23.6869C69.9142 23.7489 69.9538 23.8153 69.9934 23.8861L70.2574 24.311C73.8086 24.5013 77.3817 25.444 80.9109 27.1258C81.1749 27.2497 81.4389 27.3825 81.703 27.5153C83.4411 26.3911 85.1089 25.7626 86.3322 25.4174C86.9879 25.2315 87.5512 25.1165 88.0044 25.0457L74.9087 3.85045L74.8911 3.83718Z" fill="#1B5849"/>
</svg>
