<svg width="200" height="38" viewBox="0 0 200 38" fill="none" xmlns="http://www.w3.org/2000/svg">
<g clip-path="url(#clip0_62_371)">
<path d="M157.184 0.00439453C152.942 0.00439453 149.501 3.46538 149.501 7.73186C149.501 11.9983 152.942 15.4593 157.184 15.4593C161.426 15.4593 164.867 11.9983 164.867 7.73186C164.867 3.46538 161.426 0.00439453 157.184 0.00439453ZM157.223 12.1223C154.834 12.1223 152.893 10.1705 152.893 7.76726C152.893 5.36405 154.834 3.41227 157.223 3.41227C159.613 3.41227 161.553 5.36405 161.553 7.76726C161.553 10.1705 159.613 12.1223 157.223 12.1223Z" fill="#0B9E7F"/>
<path d="M113.356 0.00442581C109.114 0.00442581 105.672 3.46541 105.672 7.73189C105.672 11.9984 109.114 15.4594 113.356 15.4594C114.676 15.4594 115.921 15.123 117.008 14.5344V15.4594H121.039V10.3608C121.039 8.63475 121.171 6.83788 120.607 5.1782L120.599 5.15164C120.533 4.95691 120.453 4.76217 120.37 4.57186C119.881 3.47869 119.138 2.50501 118.218 1.74377C117.285 0.978104 116.176 0.433729 114.997 0.177032C114.46 0.0575355 113.906 0 113.356 0V0.00442581ZM113.166 11.9895C110.847 11.9895 108.968 10.0997 108.968 7.7673C108.968 5.43489 110.847 3.54507 113.166 3.54507C115.485 3.54507 117.364 5.43489 117.364 7.7673C117.364 10.0997 115.485 11.9895 113.166 11.9895Z" fill="#0B9E7F"/>
<path d="M139.111 7.77171C139.111 7.77171 139.111 7.76286 139.111 7.75843V7.69647C139.098 6.28021 138.755 5.00116 138.077 3.85487C137.386 2.69088 136.449 1.76589 135.261 1.07989C134.073 0.398314 132.722 0.0531006 131.208 0.0531006C129.694 0.0531006 128.343 0.393888 127.155 1.07989C125.967 1.76589 125.03 2.69088 124.339 3.85487C123.648 5.01886 123.305 6.32447 123.305 7.77171C123.305 9.21895 123.648 10.5201 124.339 11.6886C125.03 12.8525 125.967 13.7775 127.155 14.4635C128.343 15.1451 129.694 15.4903 131.208 15.4903C132.722 15.4903 134.073 15.1495 135.261 14.4635C135.292 14.4458 135.318 14.4281 135.349 14.4104V14.4768C135.349 15.5346 135.01 16.3666 134.328 16.9641C133.646 17.5616 132.722 17.8581 131.556 17.8581C130.618 17.8581 129.817 17.69 129.157 17.3536C128.497 17.0172 127.899 16.5304 127.362 15.8931L124.977 18.2919C125.646 19.2567 126.548 20.0002 127.679 20.5313C128.81 21.0624 130.112 21.328 131.586 21.328C133.061 21.328 134.363 21.0403 135.494 20.4605C136.625 19.8807 137.509 19.0797 138.152 18.0484C138.794 17.0172 139.116 15.809 139.116 14.4237V7.78942C139.116 7.78942 139.116 7.78056 139.116 7.77614L139.111 7.77171ZM131.278 11.9895C128.902 11.9895 126.979 10.0554 126.979 7.66549C126.979 5.27556 128.902 3.34148 131.278 3.34148C133.655 3.34148 135.578 5.27556 135.578 7.66549C135.578 10.0554 133.655 11.9895 131.278 11.9895Z" fill="#0B9E7F"/>
<path d="M148.502 0.031025H147.723C146.618 0.031025 145.514 0.0221734 144.409 0.00447016C144.04 4.43464e-05 143.666 -0.00880727 143.3 0.0752831C142.425 0.270019 141.734 1.16846 141.734 2.27934V15.4417H145.113V3.56282H145.694C146.152 3.56282 146.609 3.60708 147.063 3.50971C147.428 3.43447 147.758 3.20876 148.018 2.87682C148.603 2.11558 148.502 0.995852 148.502 0.0265992V0.031025Z" fill="#0B9E7F"/>
<path d="M127.058 23.3594C125.989 22.7797 124.7 22.4875 123.186 22.4875C122.46 22.4875 121.782 22.5716 121.153 22.7398C120.524 22.908 119.947 23.1514 119.415 23.4657C118.887 23.7799 118.416 24.1561 118.002 24.5898H117.971C117.58 24.1561 117.118 23.7799 116.59 23.4657C116.062 23.1514 115.485 22.908 114.869 22.7398C114.249 22.5716 113.58 22.4875 112.854 22.4875C111.344 22.4875 110.051 22.7797 108.981 23.3594C107.912 23.9436 107.094 24.727 106.521 25.714C105.954 26.7009 105.668 27.7852 105.668 28.9714V37.9425H109.699V28.9714C109.699 28.4181 109.839 27.9136 110.125 27.4622C110.411 27.0063 110.794 26.6434 111.274 26.3646C111.754 26.0902 112.282 25.9485 112.849 25.9485C113.417 25.9485 113.967 26.0857 114.438 26.3646C114.909 26.6434 115.287 27.0063 115.573 27.4622C115.859 27.918 116 28.4181 116 28.9714V37.9425H120.031V28.9714C120.031 28.4181 120.172 27.9136 120.458 27.4622C120.744 27.0063 121.127 26.6434 121.606 26.3646C122.086 26.0902 122.614 25.9485 123.182 25.9485C123.749 25.9485 124.299 26.0857 124.77 26.3646C125.241 26.6434 125.619 27.0063 125.901 27.4622C126.187 27.918 126.328 28.4181 126.328 28.9714V37.9425H130.363V28.9714C130.363 27.7852 130.077 26.7009 129.509 25.714C128.942 24.727 128.119 23.9436 127.05 23.3594H127.058Z" fill="#1B5849"/>
<path d="M154.865 25.8955C155.234 25.6874 155.758 25.5856 156.436 25.5856C157.153 25.5856 157.791 25.7184 158.345 25.9884C158.9 26.2584 159.393 26.6611 159.824 27.1966L161.98 25.028C161.364 24.1827 160.598 23.5453 159.683 23.1205C158.768 22.6956 157.716 22.4832 156.524 22.4832C155.393 22.4832 154.425 22.669 153.611 23.0408C152.801 23.4126 152.172 23.9392 151.732 24.6208C151.292 25.3024 151.067 26.1212 151.067 27.0683C151.067 27.9579 151.252 28.6793 151.622 29.2369C151.991 29.7946 152.471 30.2327 153.056 30.5558C153.641 30.8745 154.257 31.1312 154.904 31.3171C155.551 31.503 156.167 31.6844 156.752 31.8614C157.338 32.0385 157.817 32.2509 158.187 32.4988C158.557 32.7466 158.741 33.0962 158.741 33.5521C158.741 34.008 158.548 34.3178 158.156 34.5435C157.765 34.7692 157.193 34.8843 156.431 34.8843C155.591 34.8843 154.834 34.7338 154.165 34.4328C153.496 34.1319 152.907 33.6849 152.392 33.083L150.235 35.2516C150.706 35.8314 151.261 36.3227 151.899 36.7254C152.537 37.1282 153.232 37.438 153.993 37.6548C154.755 37.8717 155.542 37.9823 156.365 37.9823C158.09 37.9823 159.454 37.5575 160.462 36.7121C161.47 35.8668 161.971 34.7205 161.971 33.2733C161.971 32.366 161.787 31.6269 161.417 31.0559C161.047 30.4894 160.568 30.0336 159.982 29.6928C159.397 29.352 158.781 29.082 158.134 28.8873C157.487 28.6926 156.871 28.5111 156.286 28.3429C155.701 28.1792 155.221 27.98 154.852 27.7543C154.482 27.5286 154.297 27.2055 154.297 26.7939C154.297 26.4 154.482 26.1035 154.852 25.8955H154.865Z" fill="#1B5849"/>
<path d="M170.495 17.8094H167.256V22.4875H163.868V25.4484H167.256V37.9425H170.495V25.4484H173.879V22.4875H170.495V17.8094Z" fill="#1B5849"/>
<path d="M186.992 23.4479C185.936 22.8062 184.717 22.4875 183.34 22.4875C181.963 22.4875 180.634 22.8283 179.472 23.5099C178.31 24.1915 177.391 25.1165 176.713 26.2849C176.035 27.4533 175.696 28.7678 175.696 30.2371C175.696 31.7065 176.04 33.0254 176.73 34.2027C177.417 35.3799 178.354 36.3049 179.534 36.9777C180.713 37.6504 182.042 37.9823 183.525 37.9823C184.673 37.9823 185.765 37.7654 186.79 37.3317C187.815 36.898 188.691 36.2562 189.408 35.4109L187.252 33.2113C186.799 33.7291 186.253 34.1186 185.606 34.3885C184.959 34.6585 184.255 34.7913 183.494 34.7913C182.609 34.7913 181.831 34.601 181.153 34.2159C180.475 33.8353 179.952 33.2909 179.582 32.5872C179.406 32.2509 179.274 31.888 179.182 31.5029H190.209C190.271 31.1931 190.319 30.9099 190.35 30.6487C190.381 30.392 190.398 30.1398 190.398 29.8919C190.398 28.4668 190.095 27.1966 189.487 26.0813C188.88 24.966 188.048 24.0897 186.992 23.4479ZM179.551 27.741C179.899 27.0683 180.392 26.5504 181.03 26.1742C181.668 25.8025 182.416 25.6166 183.278 25.6166C184.141 25.6166 184.792 25.7804 185.36 26.1123C185.923 26.4442 186.359 26.9178 186.671 27.5374C186.843 27.8826 186.97 28.2809 187.058 28.7147H179.199C179.287 28.365 179.402 28.0375 179.556 27.7366L179.551 27.741Z" fill="#1B5849"/>
<path d="M140.673 22.4875C136.431 22.4875 132.99 25.9485 132.99 30.215C132.99 34.4815 136.431 37.9425 140.673 37.9425C141.993 37.9425 143.239 37.6061 144.326 37.0175V37.9425H148.356V36.0969C148.356 34.3089 148.365 32.5209 148.348 30.7328C148.339 30.0247 148.339 29.321 148.194 28.6261C148.07 28.0242 147.872 27.44 147.608 26.8868C147.094 25.7981 146.319 24.8421 145.373 24.103C144.427 23.3639 143.278 22.8416 142.086 22.6203C141.619 22.5318 141.144 22.492 140.673 22.492V22.4875ZM140.484 34.4682C138.165 34.4682 136.286 32.5784 136.286 30.246C136.286 27.9136 138.165 26.0238 140.484 26.0238C142.803 26.0238 144.682 27.9136 144.682 30.246C144.682 32.5784 142.803 34.4682 140.484 34.4682Z" fill="#1B5849"/>
<path d="M199.991 22.5097H199.212C198.108 22.5097 197.003 22.5008 195.899 22.4831C195.529 22.4787 195.155 22.4698 194.79 22.5539C193.914 22.7487 193.223 23.6471 193.223 24.758V37.9203H196.603V26.0459H197.184C197.641 26.0459 198.099 26.0901 198.552 25.9928C198.917 25.9175 199.248 25.6918 199.507 25.3599C200.092 24.5986 199.991 23.4789 199.991 22.5097Z" fill="#1B5849"/>
<path d="M66.9483 23.802C66.8471 23.9702 66.7723 24.1605 66.7371 24.3641C66.6887 24.3641 66.6403 24.3685 66.5963 24.3774C66.7019 24.2003 66.8119 24.0277 66.9175 23.8551C66.9263 23.8374 66.9395 23.8197 66.9483 23.8064V23.802Z" fill="#89BC66"/>
<path d="M20.2024 23.7932C20.11 23.9481 20.0396 24.1163 20 24.2978C19.9648 24.2978 19.9252 24.2978 19.89 24.3022L20.2024 23.7932Z" fill="#89BC66"/>
<path d="M70.2443 24.3066C70.2091 24.3066 70.1738 24.3066 70.1342 24.3066C70.099 24.1561 70.0462 24.0145 69.9802 23.8861L70.2443 24.311V24.3066Z" fill="#89BC66"/>
<path d="M45.2761 24.0012C45.2761 24.0012 45.2585 24.0012 45.2541 24.0012C45.2189 23.9215 45.1793 23.8418 45.1309 23.7666C45.1793 23.8418 45.2277 23.9215 45.2761 24.0012Z" fill="#89BC66"/>
<path d="M23.5643 24.3907C23.5159 24.3862 23.4675 24.3818 23.4147 24.3774C23.3751 24.165 23.3003 23.9746 23.1947 23.7976L23.5599 24.3907H23.5643Z" fill="#89BC66"/>
<path d="M2.76788 31.0161C1.9582 31.6313 1.16172 32.2863 0.38724 32.9723C0.0132028 31.8526 -0.0968082 30.6488 0.0924107 29.4626C0.748076 29.7503 1.73818 30.2504 2.76788 31.0205V31.0161Z" fill="#89BC66"/>
<path d="M18.8515 25.9796L17.5093 28.1483C14.4334 28.728 11.4719 29.9982 8.92849 31.8659C8.64686 32.0695 8.36963 32.2864 8.0968 32.5077C6.50824 33.8 5.1045 35.3712 3.92959 37.1459C3.77117 37.0618 3.62156 36.9777 3.47194 36.8848C2.46864 36.2563 1.67216 35.4287 1.0957 34.486C1.95379 33.7115 2.93069 32.8927 4.0176 32.0784C4.44444 31.7641 4.88448 31.4455 5.33773 31.1357C6.23542 30.5249 7.19031 29.9274 8.20681 29.3698C8.71726 29.091 9.24092 28.821 9.78217 28.5599C12.4752 27.2675 15.5247 26.2894 18.8515 25.9796Z" fill="#89BC66"/>
<path d="M41.1881 24.9306C39.3751 25.5281 37.5666 26.3469 35.7756 27.3781C35.7404 27.3958 35.7052 27.4179 35.67 27.4356C35.3443 27.6215 35.0231 27.8207 34.6975 28.0198C34.5303 27.9225 34.3586 27.8295 34.1914 27.7366C30.8383 25.8999 27.2167 24.7447 23.5688 24.3818L23.2035 23.7888C23.1859 23.7578 23.1683 23.7268 23.1463 23.6958C22.8339 23.2355 22.3014 22.9301 21.703 22.9301C21.1045 22.9301 20.5721 23.2355 20.2596 23.6958C20.2376 23.7268 20.22 23.7578 20.2024 23.7888L19.89 24.2977C16.2992 24.4748 12.6821 25.4174 9.11772 27.1125C8.85369 27.2365 8.58967 27.3692 8.32564 27.502C6.58747 26.3779 4.9197 25.7494 3.69638 25.4042C3.08912 25.236 2.56106 25.1253 2.12982 25.0501L15.4588 3.48757C15.5996 3.25742 15.7536 3.04498 15.9164 2.83697C16.6601 1.881 17.5974 1.15074 18.6403 0.677177C18.7503 0.624067 18.8603 0.579809 18.9747 0.535551C19.0319 0.513422 19.0891 0.486867 19.1463 0.469164C19.1551 0.469164 19.1639 0.460312 19.1771 0.455887C19.2695 0.42048 19.3663 0.389499 19.4588 0.358519C19.494 0.345241 19.5292 0.33639 19.56 0.327538C19.6304 0.305409 19.7052 0.28328 19.7756 0.265577C19.8284 0.252299 19.8812 0.239022 19.9296 0.225744C19.9868 0.212467 20.044 0.194764 20.1012 0.185912C20.1672 0.172635 20.2288 0.159357 20.2904 0.14608C20.3388 0.137228 20.3872 0.128377 20.4357 0.119525C20.5061 0.106248 20.5765 0.097396 20.6469 0.0841186C20.6953 0.0796928 20.7393 0.0708412 20.7833 0.0664154C20.8537 0.0575638 20.9241 0.0487121 20.9945 0.0442863C21.0429 0.0398605 21.0913 0.0354347 21.1397 0.0310089C21.2057 0.0265831 21.2717 0.0221573 21.3421 0.0177315C21.3949 0.0177315 21.4478 0.0133057 21.505 0.0133057C21.5666 0.0133057 21.6282 0.0133057 21.6898 0.0133057C21.7514 0.0133057 21.813 0.0133057 21.8702 0.0133057C21.923 0.0133057 21.9802 0.0133057 22.033 0.0177315C22.099 0.0177315 22.165 0.0221573 22.2354 0.0310089C22.2838 0.0354347 22.3322 0.0398605 22.3806 0.0442863C22.4511 0.0487121 22.5215 0.0575638 22.5919 0.0664154C22.6403 0.0708412 22.6843 0.0796928 22.7283 0.0841186C22.7987 0.0929702 22.8691 0.106248 22.9395 0.119525C22.9879 0.128377 23.0363 0.137228 23.0847 0.14608C23.1507 0.159357 23.2123 0.172635 23.2739 0.185912C23.3311 0.19919 23.3883 0.212467 23.4456 0.225744C23.4984 0.239022 23.5512 0.252299 23.5996 0.265577C23.6744 0.28328 23.7448 0.305409 23.8152 0.327538C23.8504 0.33639 23.8856 0.349667 23.9164 0.358519C24.0088 0.389499 24.1056 0.42048 24.198 0.455887C24.2068 0.455887 24.22 0.464738 24.2288 0.469164L24.4137 0.544403C24.4665 0.562106 24.5149 0.584235 24.5633 0.606364C24.6205 0.628493 24.6733 0.655048 24.7305 0.681603C24.7877 0.708158 24.8405 0.734713 24.8977 0.761267C25.0209 0.818803 25.1441 0.88519 25.2629 0.956003C25.3465 1.00469 25.4258 1.05337 25.5094 1.10205C25.5226 1.11091 25.5402 1.11976 25.549 1.12418C25.5622 1.12861 25.571 1.13746 25.5798 1.14631C26.4995 1.72167 27.3047 2.50946 27.9164 3.50084L32.6425 11.1531L41.1661 24.9439L41.1881 24.9306Z" fill="#0B9E7F"/>
<path d="M6.69745 28.4005C5.82616 28.905 4.96808 29.4494 4.11879 30.038C2.71505 28.9139 1.33331 28.2412 0.514832 27.9004C0.673247 27.4976 0.871267 27.0993 1.10449 26.7187L1.2057 26.5549C2.2486 26.6656 4.39162 27.0993 6.69305 28.4049L6.69745 28.4005Z" fill="#89BC66"/>
<path d="M16.3256 30.0646L13.5798 34.5081C11.8328 37.3362 8.49286 38.5666 5.44775 37.7434C6.49506 36.2209 7.72278 34.8755 9.10012 33.7513C9.35094 33.5477 9.60617 33.3486 9.8658 33.1582C11.8108 31.7331 14.0154 30.6842 16.3256 30.0602V30.0646Z" fill="#89BC66"/>
<path d="M89.7162 33.0475C88.9153 32.335 88.088 31.6578 87.2476 31.0161C88.3345 30.2062 89.3774 29.6928 90.0286 29.4139C90.2267 30.6399 90.1122 31.8924 89.7118 33.0475H89.7162Z" fill="#89BC66"/>
<path d="M88.9989 34.5523C88.4224 35.4685 87.6391 36.274 86.6623 36.8847C86.4818 36.9954 86.3014 37.0972 86.1166 37.1945C84.9329 35.3976 83.5203 33.8132 81.9186 32.5076C81.6458 32.2863 81.3641 32.0694 81.0869 31.8658C78.5786 30.0247 75.6655 28.7678 72.6336 28.1747L71.2827 25.9928C74.5654 26.3159 77.5709 27.2896 80.2332 28.5642C80.7701 28.8209 81.2981 29.0909 81.8086 29.3741C82.8251 29.9318 83.78 30.5293 84.6776 31.1356C85.1353 31.4454 85.5753 31.7641 85.9978 32.0783C87.1155 32.9148 88.1188 33.7601 88.9945 34.5523H88.9989Z" fill="#89BC66"/>
<path d="M84.5808 37.7743C81.5665 38.54 78.2794 37.3096 76.55 34.5125L73.8262 30.1044C76.0836 30.7328 78.2398 31.7685 80.1408 33.1626C80.4004 33.3485 80.6557 33.5521 80.9109 33.7557C82.297 34.8842 83.5291 36.243 84.5808 37.7743Z" fill="#89BC66"/>
<path d="M89.5974 27.8561C88.7965 28.1836 87.3575 28.8652 85.8966 30.0336C85.0473 29.445 84.1892 28.8962 83.3179 28.3961C85.703 27.0462 87.9208 26.6257 88.9153 26.5372L89.0253 26.7143C89.2541 27.0816 89.4433 27.4667 89.6018 27.8561H89.5974Z" fill="#89BC66"/>
<path d="M52.1936 30.0779C51.5247 30.578 50.8735 31.1047 50.2398 31.6623C49.5401 30.879 48.9329 29.9894 48.3652 29.0732H48.3784C49.5005 29.1086 50.9483 29.3299 52.1936 30.0735V30.0779Z" fill="#89BC66"/>
<path d="M62.8603 30.339C61.7162 31.9544 60.3564 33.3707 58.4334 34.0522C57.6765 34.3222 56.8889 34.4506 56.1056 34.4638C56.594 33.9859 57.1089 33.5344 57.6501 33.1184C59.2431 31.8969 60.9945 30.9675 62.8603 30.339Z" fill="#89BC66"/>
<path d="M55.4455 27.9534C54.8163 28.3075 54.2002 28.6881 53.5929 29.0909C52.2464 28.0906 50.4906 27.5374 48.4268 27.471C48.0924 27.4577 47.7536 27.4666 47.4103 27.4799C47.0319 26.8293 46.6578 26.1875 46.2706 25.5768C46.2618 25.5591 46.2486 25.5414 46.2398 25.5281C49.6413 25.3024 52.9065 26.161 55.4455 27.9534Z" fill="#89BC66"/>
<path d="M42.4246 34.2824C42.1562 34.7515 41.835 35.1941 41.4609 35.6057C41.0209 36.0881 40.5104 36.5218 39.9296 36.8847C39.4851 37.1636 39.0231 37.3849 38.5478 37.5575C37.9978 37.7566 37.4301 37.8894 36.8625 37.9514C36.0132 38.0443 35.1595 37.9868 34.3366 37.792C34.6754 37.2255 35.0495 36.6723 35.4499 36.1368C35.7756 35.703 36.1188 35.2826 36.4796 34.8754C37.1441 34.1319 37.8658 33.4326 38.6314 32.7909C39.0495 32.4456 39.4851 32.1137 39.934 31.8039C40.5632 31.3702 41.2189 30.9719 41.8966 30.6222C42.1914 30.4717 42.4554 30.339 42.7018 30.2239C42.9175 30.1221 43.1375 30.0292 43.3663 29.9451C43.4983 31.4543 43.1727 32.9723 42.4246 34.2824Z" fill="#89BC66"/>
<path d="M29.9318 31.5472C29.5138 31.9057 29.0957 32.2775 28.6733 32.6581L27.2651 30.3788C28.1804 30.693 29.0693 31.0825 29.9274 31.5428L29.9318 31.5472Z" fill="#89BC66"/>
<path d="M43.0451 28.3518C42.7019 28.4757 42.3631 28.6173 42.0374 28.7634C41.769 28.8873 41.483 29.0289 41.1661 29.1927C40.3036 29.6397 39.472 30.1575 38.6755 30.7373C38.231 31.0604 37.7998 31.3967 37.3818 31.7552C36.6821 32.3527 36.0176 33.0033 35.3972 33.6893C35.0363 34.0876 34.6931 34.5037 34.3675 34.9241C33.7954 35.6632 33.2761 36.4377 32.8141 37.2344C31.6216 36.6458 30.5699 35.7252 29.8174 34.5081L29.5314 34.0434C30.1474 33.4769 30.7591 32.9325 31.3796 32.4147C31.8152 32.0518 32.2508 31.7021 32.6909 31.3658C33.3686 30.8435 34.0506 30.3567 34.7327 29.9052C35.0627 29.6884 35.3884 29.4759 35.7228 29.2724C35.8944 29.1661 36.066 29.0643 36.2332 28.9626C36.3565 28.8917 36.4753 28.8209 36.5985 28.7501C36.6337 28.7324 36.6689 28.7103 36.6997 28.6926C37.8438 28.042 38.9923 27.4799 40.1452 27.0196C40.7833 26.7629 41.4214 26.5328 42.0594 26.3336L42.2926 26.7098C42.6183 27.2365 42.8691 27.7853 43.0495 28.3474L43.0451 28.3518Z" fill="#89BC66"/>
<path d="M33.1881 29.0201C32.5456 29.4715 31.9032 29.9495 31.2607 30.4541C29.6193 29.4937 27.8548 28.7856 26.011 28.343L24.6469 26.1389C27.5775 26.5815 30.4686 27.564 33.1881 29.0201Z" fill="#89BC66"/>
<path d="M65.5182 26.1212C65.3246 26.431 65.1353 26.7364 64.9461 27.0462C64.6909 27.4622 64.4357 27.8827 64.176 28.312C61.4654 28.9405 58.9307 30.1266 56.6865 31.8438C55.7536 32.5563 54.9131 33.353 54.1254 34.2116C53.3642 34.0036 52.6337 33.6716 51.9648 33.2158C51.7668 33.083 51.582 32.937 51.3928 32.7821C53.0693 31.326 54.8779 30.0735 56.7701 29.0511C56.9945 28.9316 57.2189 28.8121 57.4434 28.7015C60.0264 27.4003 62.7503 26.524 65.5094 26.1256L65.5182 26.1212Z" fill="#89BC66"/>
<path d="M74.8911 3.84609L74.6711 3.4876C73.4213 1.465 71.3575 0.261182 69.1705 0.0398918C69.0957 0.035466 69.0253 0.0266144 68.9505 0.0221886C68.8757 0.0177628 68.8053 0.0133369 68.7305 0.00891113C68.7085 0.00891113 68.6821 0.00891113 68.6601 0.00891113C68.5853 0.00891113 68.5148 0.00891113 68.44 0.00891113C68.3784 0.00891113 68.3168 0.00891113 68.2552 0.00891113C68.2288 0.00891113 68.2024 0.00891113 68.1804 0.00891113C68.1232 0.00891113 68.0704 0.0133369 68.0132 0.0177628C67.8944 0.0266144 67.7756 0.035466 67.6568 0.0487434C67.5688 0.057595 67.4851 0.0708725 67.3971 0.0841499C67.3795 0.0841499 67.3575 0.0885757 67.3399 0.0930015C67.3267 0.0930015 67.3135 0.0974273 67.3003 0.0974273C67.2167 0.110705 67.1331 0.128408 67.0495 0.141685C66.9615 0.159389 66.8735 0.177092 66.7899 0.199221C66.6975 0.22135 66.6095 0.243479 66.5171 0.270034C66.3542 0.314292 66.1958 0.362976 66.0418 0.420511C66.011 0.429363 65.9846 0.438215 65.9582 0.451492C65.879 0.482473 65.7998 0.509028 65.725 0.540008C65.703 0.54886 65.6854 0.557711 65.6634 0.566563C65.5974 0.593118 65.5314 0.624099 65.4653 0.650654C65.3861 0.68606 65.3025 0.725892 65.2189 0.765725C65.2189 0.765725 65.2101 0.77015 65.2057 0.77015C65.1353 0.805557 65.0605 0.840963 64.9901 0.880796L64.9285 0.916202C64.8537 0.956034 64.7833 0.995867 64.7085 1.04012C64.6249 1.08881 64.5457 1.13749 64.4664 1.1906C64.3916 1.23929 64.3124 1.2924 64.2376 1.34551C64.2376 1.34551 64.2376 1.34551 64.2332 1.34993C64.1628 1.39862 64.0924 1.45173 64.0264 1.50041C63.934 1.57122 63.846 1.64203 63.7536 1.71727C63.6876 1.77038 63.626 1.82792 63.56 1.88545C63.4895 1.95184 63.4191 2.0138 63.3487 2.08462C62.9263 2.49622 62.5435 2.96535 62.2222 3.49202L62.0022 3.85051L56.0528 13.4766L49.8834 3.49645C49.6282 3.08042 49.3377 2.70423 49.0209 2.35902C48.9153 2.24394 48.8053 2.1333 48.6953 2.02708C48.044 1.40304 47.2915 0.916202 46.4818 0.579841C46.4114 0.54886 46.341 0.522305 46.2706 0.49575C46.1298 0.438215 45.9846 0.389531 45.8438 0.345273C45.8218 0.340847 45.8042 0.331995 45.7822 0.327569C45.703 0.30544 45.6194 0.278886 45.5402 0.256756C45.4917 0.243479 45.4477 0.234627 45.3993 0.22135C45.3421 0.208073 45.2893 0.194795 45.2321 0.181518C45.1749 0.16824 45.1221 0.154963 45.0649 0.146111C45.0165 0.13726 44.9725 0.128408 44.9285 0.119556C44.8669 0.106279 44.8053 0.0974273 44.7393 0.0885757C44.7085 0.0841499 44.6733 0.0797241 44.6381 0.0752983C44.5149 0.057595 44.3916 0.0443176 44.264 0.035466C44.2156 0.035466 44.1672 0.0266144 44.1188 0.0221886C44.066 0.0177628 44.0088 0.0177628 43.956 0.0133369C43.8988 0.0133369 43.8416 0.00891113 43.7844 0.00891113C43.736 0.00891113 43.6876 0.00891113 43.6392 0.00891113C43.5732 0.00891113 43.5071 0.00891113 43.4411 0.00891113C43.4015 0.00891113 43.3619 0.00891113 43.3179 0.0133369C43.2387 0.0133369 43.1595 0.0221886 43.0803 0.0266144C43.0495 0.0266144 43.0231 0.0310402 42.9967 0.0310402C42.8295 0.0487434 42.6579 0.0664467 42.495 0.0930015C42.4378 0.101853 42.385 0.110705 42.3278 0.123982C42.3102 0.123982 42.2926 0.128408 42.275 0.132834C42.187 0.150537 42.099 0.16824 42.011 0.190369C41.9714 0.199221 41.9318 0.208073 41.8878 0.22135C41.8262 0.239053 41.7646 0.252331 41.703 0.270034C41.6458 0.287737 41.5886 0.301015 41.5358 0.318718C41.4961 0.331995 41.4565 0.340847 41.4169 0.354124C41.3421 0.376253 41.2717 0.402808 41.1969 0.429363C41.1837 0.433789 41.1749 0.438215 41.1617 0.44264C40.8581 0.553286 40.5545 0.68606 40.2596 0.840963C40.2068 0.867518 40.154 0.894073 40.1056 0.925054C40 0.982589 39.8944 1.04455 39.7932 1.11094C39.7888 1.11094 39.7844 1.11536 39.78 1.11979C39.7052 1.16405 39.6348 1.21273 39.5644 1.26142C39.5644 1.26142 39.56 1.26142 39.5556 1.26584C39.5115 1.29682 39.4675 1.32338 39.4279 1.35436C39.3883 1.38091 39.3531 1.40747 39.3135 1.43845C39.2651 1.47385 39.2167 1.50926 39.1727 1.54467C38.4906 2.06691 37.8922 2.71751 37.4125 3.49202L33.637 9.59964L42.2794 23.6162C42.6007 23.2002 43.0979 22.9346 43.6568 22.9346C44.2552 22.9346 44.7789 23.2356 45.0957 23.6958C45.1133 23.7224 45.1309 23.749 45.1441 23.7755C45.1925 23.8507 45.2409 23.9304 45.2893 24.0101C49.6458 23.5144 53.8966 24.6341 57.0209 27.1347C60.0792 25.6299 63.3311 24.6872 66.6051 24.3863C66.7107 24.2092 66.8207 24.0366 66.9263 23.864C66.9351 23.8463 66.9483 23.8286 66.9571 23.8153C67.2607 23.3019 67.8152 22.9612 68.4532 22.9612C69.0385 22.9612 69.5534 23.2533 69.8702 23.6958C69.9142 23.7578 69.9538 23.8242 69.9934 23.895L70.2574 24.3199C73.8086 24.5102 77.3817 25.4529 80.9109 27.1347C81.1749 27.2586 81.4389 27.3914 81.703 27.5242C83.4411 26.4 85.1089 25.7715 86.3322 25.4263C86.9879 25.2405 87.5512 25.1254 88.0044 25.0546L74.9087 3.85937L74.8911 3.84609Z" fill="#1B5849"/>
<path d="M157.184 0.00439453C152.942 0.00439453 149.501 3.46538 149.501 7.73186C149.501 11.9983 152.942 15.4593 157.184 15.4593C161.426 15.4593 164.867 11.9983 164.867 7.73186C164.867 3.46538 161.426 0.00439453 157.184 0.00439453ZM157.223 12.1223C154.834 12.1223 152.893 10.1705 152.893 7.76726C152.893 5.36405 154.834 3.41227 157.223 3.41227C159.613 3.41227 161.553 5.36405 161.553 7.76726C161.553 10.1705 159.613 12.1223 157.223 12.1223Z" fill="#0B9E7F"/>
<path d="M113.356 0.00442581C109.114 0.00442581 105.672 3.46541 105.672 7.73189C105.672 11.9984 109.114 15.4594 113.356 15.4594C114.676 15.4594 115.921 15.123 117.008 14.5344V15.4594H121.039V10.3608C121.039 8.63475 121.171 6.83788 120.607 5.1782L120.599 5.15164C120.533 4.95691 120.453 4.76217 120.37 4.57186C119.881 3.47869 119.138 2.50501 118.218 1.74377C117.285 0.978104 116.176 0.433729 114.997 0.177032C114.46 0.0575355 113.906 0 113.356 0V0.00442581ZM113.166 11.9895C110.847 11.9895 108.968 10.0997 108.968 7.7673C108.968 5.43489 110.847 3.54507 113.166 3.54507C115.485 3.54507 117.364 5.43489 117.364 7.7673C117.364 10.0997 115.485 11.9895 113.166 11.9895Z" fill="#0B9E7F"/>
<path d="M139.111 7.77171C139.111 7.77171 139.111 7.76286 139.111 7.75843V7.69647C139.098 6.28021 138.755 5.00116 138.077 3.85487C137.386 2.69088 136.449 1.76589 135.261 1.07989C134.073 0.398314 132.722 0.0531006 131.208 0.0531006C129.694 0.0531006 128.343 0.393888 127.155 1.07989C125.967 1.76589 125.03 2.69088 124.339 3.85487C123.648 5.01886 123.305 6.32447 123.305 7.77171C123.305 9.21895 123.648 10.5201 124.339 11.6886C125.03 12.8525 125.967 13.7775 127.155 14.4635C128.343 15.1451 129.694 15.4903 131.208 15.4903C132.722 15.4903 134.073 15.1495 135.261 14.4635C135.292 14.4458 135.318 14.4281 135.349 14.4104V14.4768C135.349 15.5346 135.01 16.3666 134.328 16.9641C133.646 17.5616 132.722 17.8581 131.556 17.8581C130.618 17.8581 129.817 17.69 129.157 17.3536C128.497 17.0172 127.899 16.5304 127.362 15.8931L124.977 18.2919C125.646 19.2567 126.548 20.0002 127.679 20.5313C128.81 21.0624 130.112 21.328 131.586 21.328C133.061 21.328 134.363 21.0403 135.494 20.4605C136.625 19.8807 137.509 19.0797 138.152 18.0484C138.794 17.0172 139.116 15.809 139.116 14.4237V7.78942C139.116 7.78942 139.116 7.78056 139.116 7.77614L139.111 7.77171ZM131.278 11.9895C128.902 11.9895 126.979 10.0554 126.979 7.66549C126.979 5.27556 128.902 3.34148 131.278 3.34148C133.655 3.34148 135.578 5.27556 135.578 7.66549C135.578 10.0554 133.655 11.9895 131.278 11.9895Z" fill="#0B9E7F"/>
<path d="M148.502 0.031025H147.723C146.618 0.031025 145.514 0.0221734 144.409 0.00447016C144.04 4.43464e-05 143.666 -0.00880727 143.3 0.0752831C142.425 0.270019 141.734 1.16846 141.734 2.27934V15.4417H145.113V3.56282H145.694C146.152 3.56282 146.609 3.60708 147.063 3.50971C147.428 3.43447 147.758 3.20876 148.018 2.87682C148.603 2.11558 148.502 0.995852 148.502 0.0265992V0.031025Z" fill="#0B9E7F"/>
<path d="M127.058 23.3594C125.989 22.7797 124.7 22.4875 123.186 22.4875C122.46 22.4875 121.782 22.5716 121.153 22.7398C120.524 22.908 119.947 23.1514 119.415 23.4657C118.887 23.7799 118.416 24.1561 118.002 24.5898H117.971C117.58 24.1561 117.118 23.7799 116.59 23.4657C116.062 23.1514 115.485 22.908 114.869 22.7398C114.249 22.5716 113.58 22.4875 112.854 22.4875C111.344 22.4875 110.051 22.7797 108.981 23.3594C107.912 23.9436 107.094 24.727 106.521 25.714C105.954 26.7009 105.668 27.7852 105.668 28.9714V37.9425H109.699V28.9714C109.699 28.4181 109.839 27.9136 110.125 27.4622C110.411 27.0063 110.794 26.6434 111.274 26.3646C111.754 26.0902 112.282 25.9485 112.849 25.9485C113.417 25.9485 113.967 26.0857 114.438 26.3646C114.909 26.6434 115.287 27.0063 115.573 27.4622C115.859 27.918 116 28.4181 116 28.9714V37.9425H120.031V28.9714C120.031 28.4181 120.172 27.9136 120.458 27.4622C120.744 27.0063 121.127 26.6434 121.606 26.3646C122.086 26.0902 122.614 25.9485 123.182 25.9485C123.749 25.9485 124.299 26.0857 124.77 26.3646C125.241 26.6434 125.619 27.0063 125.901 27.4622C126.187 27.918 126.328 28.4181 126.328 28.9714V37.9425H130.363V28.9714C130.363 27.7852 130.077 26.7009 129.509 25.714C128.942 24.727 128.119 23.9436 127.05 23.3594H127.058Z" fill="#1B5849"/>
<path d="M154.865 25.8955C155.234 25.6874 155.758 25.5856 156.436 25.5856C157.153 25.5856 157.791 25.7184 158.345 25.9884C158.9 26.2584 159.393 26.6611 159.824 27.1966L161.98 25.028C161.364 24.1827 160.598 23.5453 159.683 23.1205C158.768 22.6956 157.716 22.4832 156.524 22.4832C155.393 22.4832 154.425 22.669 153.611 23.0408C152.801 23.4126 152.172 23.9392 151.732 24.6208C151.292 25.3024 151.067 26.1212 151.067 27.0683C151.067 27.9579 151.252 28.6793 151.622 29.2369C151.991 29.7946 152.471 30.2327 153.056 30.5558C153.641 30.8745 154.257 31.1312 154.904 31.3171C155.551 31.503 156.167 31.6844 156.752 31.8614C157.338 32.0385 157.817 32.2509 158.187 32.4988C158.557 32.7466 158.741 33.0962 158.741 33.5521C158.741 34.008 158.548 34.3178 158.156 34.5435C157.765 34.7692 157.193 34.8843 156.431 34.8843C155.591 34.8843 154.834 34.7338 154.165 34.4328C153.496 34.1319 152.907 33.6849 152.392 33.083L150.235 35.2516C150.706 35.8314 151.261 36.3227 151.899 36.7254C152.537 37.1282 153.232 37.438 153.993 37.6548C154.755 37.8717 155.542 37.9823 156.365 37.9823C158.09 37.9823 159.454 37.5575 160.462 36.7121C161.47 35.8668 161.971 34.7205 161.971 33.2733C161.971 32.366 161.787 31.6269 161.417 31.0559C161.047 30.4894 160.568 30.0336 159.982 29.6928C159.397 29.352 158.781 29.082 158.134 28.8873C157.487 28.6926 156.871 28.5111 156.286 28.3429C155.701 28.1792 155.221 27.98 154.852 27.7543C154.482 27.5286 154.297 27.2055 154.297 26.7939C154.297 26.4 154.482 26.1035 154.852 25.8955H154.865Z" fill="#1B5849"/>
<path d="M170.495 17.8094H167.256V22.4875H163.868V25.4484H167.256V37.9425H170.495V25.4484H173.879V22.4875H170.495V17.8094Z" fill="#1B5849"/>
<path d="M186.992 23.4479C185.936 22.8062 184.717 22.4875 183.34 22.4875C181.963 22.4875 180.634 22.8283 179.472 23.5099C178.31 24.1915 177.391 25.1165 176.713 26.2849C176.035 27.4533 175.696 28.7678 175.696 30.2371C175.696 31.7065 176.04 33.0254 176.73 34.2027C177.417 35.3799 178.354 36.3049 179.534 36.9777C180.713 37.6504 182.042 37.9823 183.525 37.9823C184.673 37.9823 185.765 37.7654 186.79 37.3317C187.815 36.898 188.691 36.2562 189.408 35.4109L187.252 33.2113C186.799 33.7291 186.253 34.1186 185.606 34.3885C184.959 34.6585 184.255 34.7913 183.494 34.7913C182.609 34.7913 181.831 34.601 181.153 34.2159C180.475 33.8353 179.952 33.2909 179.582 32.5872C179.406 32.2509 179.274 31.888 179.182 31.5029H190.209C190.271 31.1931 190.319 30.9099 190.35 30.6487C190.381 30.392 190.398 30.1398 190.398 29.8919C190.398 28.4668 190.095 27.1966 189.487 26.0813C188.88 24.966 188.048 24.0897 186.992 23.4479ZM179.551 27.741C179.899 27.0683 180.392 26.5504 181.03 26.1742C181.668 25.8025 182.416 25.6166 183.278 25.6166C184.141 25.6166 184.792 25.7804 185.36 26.1123C185.923 26.4442 186.359 26.9178 186.671 27.5374C186.843 27.8826 186.97 28.2809 187.058 28.7147H179.199C179.287 28.365 179.402 28.0375 179.556 27.7366L179.551 27.741Z" fill="#1B5849"/>
<path d="M140.673 22.4875C136.431 22.4875 132.99 25.9485 132.99 30.215C132.99 34.4815 136.431 37.9425 140.673 37.9425C141.993 37.9425 143.239 37.6061 144.326 37.0175V37.9425H148.356V36.0969C148.356 34.3089 148.365 32.5209 148.348 30.7328C148.339 30.0247 148.339 29.321 148.194 28.6261C148.07 28.0242 147.872 27.44 147.608 26.8868C147.094 25.7981 146.319 24.8421 145.373 24.103C144.427 23.3639 143.278 22.8416 142.086 22.6203C141.619 22.5318 141.144 22.492 140.673 22.492V22.4875ZM140.484 34.4682C138.165 34.4682 136.286 32.5784 136.286 30.246C136.286 27.9136 138.165 26.0238 140.484 26.0238C142.803 26.0238 144.682 27.9136 144.682 30.246C144.682 32.5784 142.803 34.4682 140.484 34.4682Z" fill="#1B5849"/>
<path d="M199.991 22.5097H199.212C198.108 22.5097 197.003 22.5008 195.899 22.4831C195.529 22.4787 195.155 22.4698 194.79 22.5539C193.914 22.7487 193.223 23.6471 193.223 24.758V37.9203H196.603V26.0459H197.184C197.641 26.0459 198.099 26.0901 198.552 25.9928C198.917 25.9175 199.248 25.6918 199.507 25.3599C200.092 24.5986 199.991 23.4789 199.991 22.5097Z" fill="#1B5849"/>
<path d="M66.9483 23.802C66.8471 23.9702 66.7723 24.1605 66.7371 24.3641C66.6887 24.3641 66.6403 24.3685 66.5963 24.3774C66.7019 24.2003 66.8119 24.0277 66.9175 23.8551C66.9263 23.8374 66.9395 23.8197 66.9483 23.8064V23.802Z" fill="#89BC66"/>
<path d="M20.2024 23.7932C20.11 23.9481 20.0396 24.1163 20 24.2978C19.9648 24.2978 19.9252 24.2978 19.89 24.3022L20.2024 23.7932Z" fill="#89BC66"/>
<path d="M70.2443 24.3066C70.2091 24.3066 70.1738 24.3066 70.1342 24.3066C70.099 24.1561 70.0462 24.0145 69.9802 23.8861L70.2443 24.311V24.3066Z" fill="#89BC66"/>
<path d="M45.2761 24.0012C45.2761 24.0012 45.2585 24.0012 45.2541 24.0012C45.2189 23.9215 45.1793 23.8418 45.1309 23.7666C45.1793 23.8418 45.2277 23.9215 45.2761 24.0012Z" fill="#89BC66"/>
<path d="M23.5643 24.3907C23.5159 24.3862 23.4675 24.3818 23.4147 24.3774C23.3751 24.165 23.3003 23.9746 23.1947 23.7976L23.5599 24.3907H23.5643Z" fill="#89BC66"/>
<path d="M18.8515 25.9796L17.5093 28.1483C14.4334 28.728 11.4719 29.9982 8.92849 31.8659C8.64686 32.0695 8.36963 32.2864 8.0968 32.5077C6.50824 33.8 5.1045 35.3712 3.92959 37.1459C3.77117 37.0618 3.62156 36.9777 3.47194 36.8848C2.46864 36.2563 1.67216 35.4287 1.0957 34.486C1.95379 33.7115 2.93069 32.8927 4.0176 32.0784C4.44444 31.7641 4.88448 31.4455 5.33773 31.1357C6.23542 30.5249 7.19031 29.9274 8.20681 29.3698C8.71726 29.091 9.24092 28.821 9.78217 28.5599C12.4752 27.2675 15.5247 26.2894 18.8515 25.9796Z" fill="#89BC66"/>
<path d="M41.1881 24.9306C39.3751 25.5281 37.5666 26.3469 35.7756 27.3781C35.7404 27.3958 35.7052 27.4179 35.67 27.4356C35.3443 27.6215 35.0231 27.8207 34.6975 28.0198C34.5303 27.9225 34.3586 27.8295 34.1914 27.7366C30.8383 25.8999 27.2167 24.7447 23.5688 24.3818L23.2035 23.7888C23.1859 23.7578 23.1683 23.7268 23.1463 23.6958C22.8339 23.2355 22.3014 22.9301 21.703 22.9301C21.1045 22.9301 20.5721 23.2355 20.2596 23.6958C20.2376 23.7268 20.22 23.7578 20.2024 23.7888L19.89 24.2977C16.2992 24.4748 12.6821 25.4174 9.11772 27.1125C8.85369 27.2365 8.58967 27.3692 8.32564 27.502C6.58747 26.3779 4.9197 25.7494 3.69638 25.4042C3.08912 25.236 2.56106 25.1253 2.12982 25.0501L15.4588 3.48757C15.5996 3.25742 15.7536 3.04498 15.9164 2.83697C16.6601 1.881 17.5974 1.15074 18.6403 0.677177C18.7503 0.624067 18.8603 0.579809 18.9747 0.535551C19.0319 0.513422 19.0891 0.486867 19.1463 0.469164C19.1551 0.469164 19.1639 0.460312 19.1771 0.455887C19.2695 0.42048 19.3663 0.389499 19.4588 0.358519C19.494 0.345241 19.5292 0.33639 19.56 0.327538C19.6304 0.305409 19.7052 0.28328 19.7756 0.265577C19.8284 0.252299 19.8812 0.239022 19.9296 0.225744C19.9868 0.212467 20.044 0.194764 20.1012 0.185912C20.1672 0.172635 20.2288 0.159357 20.2904 0.14608C20.3388 0.137228 20.3872 0.128377 20.4357 0.119525C20.5061 0.106248 20.5765 0.097396 20.6469 0.0841186C20.6953 0.0796928 20.7393 0.0708412 20.7833 0.0664154C20.8537 0.0575638 20.9241 0.0487121 20.9945 0.0442863C21.0429 0.0398605 21.0913 0.0354347 21.1397 0.0310089C21.2057 0.0265831 21.2717 0.0221573 21.3421 0.0177315C21.3949 0.0177315 21.4478 0.0133057 21.505 0.0133057C21.5666 0.0133057 21.6282 0.0133057 21.6898 0.0133057C21.7514 0.0133057 21.813 0.0133057 21.8702 0.0133057C21.923 0.0133057 21.9802 0.0133057 22.033 0.0177315C22.099 0.0177315 22.165 0.0221573 22.2354 0.0310089C22.2838 0.0354347 22.3322 0.0398605 22.3806 0.0442863C22.4511 0.0487121 22.5215 0.0575638 22.5919 0.0664154C22.6403 0.0708412 22.6843 0.0796928 22.7283 0.0841186C22.7987 0.0929702 22.8691 0.106248 22.9395 0.119525C22.9879 0.128377 23.0363 0.137228 23.0847 0.14608C23.1507 0.159357 23.2123 0.172635 23.2739 0.185912C23.3311 0.19919 23.3883 0.212467 23.4456 0.225744C23.4984 0.239022 23.5512 0.252299 23.5996 0.265577C23.6744 0.28328 23.7448 0.305409 23.8152 0.327538C23.8504 0.33639 23.8856 0.349667 23.9164 0.358519C24.0088 0.389499 24.1056 0.42048 24.198 0.455887C24.2068 0.455887 24.22 0.464738 24.2288 0.469164L24.4137 0.544403C24.4665 0.562106 24.5149 0.584235 24.5633 0.606364C24.6205 0.628493 24.6733 0.655048 24.7305 0.681603C24.7877 0.708158 24.8405 0.734713 24.8977 0.761267C25.0209 0.818803 25.1441 0.88519 25.2629 0.956003C25.3465 1.00469 25.4258 1.05337 25.5094 1.10205C25.5226 1.11091 25.5402 1.11976 25.549 1.12418C25.5622 1.12861 25.571 1.13746 25.5798 1.14631C26.4995 1.72167 27.3047 2.50946 27.9164 3.50084L32.6425 11.1531L41.1661 24.9439L41.1881 24.9306Z" fill="#0B9E7F"/>
<path d="M6.69745 28.4005C5.82616 28.905 4.96808 29.4494 4.11879 30.038C2.71505 28.9139 1.33331 28.2412 0.514832 27.9004C0.673247 27.4976 0.871267 27.0993 1.10449 26.7187L1.2057 26.5549C2.2486 26.6656 4.39162 27.0993 6.69305 28.4049L6.69745 28.4005Z" fill="#89BC66"/>
<path d="M16.3256 30.0646L13.5798 34.5081C11.8328 37.3362 8.49286 38.5666 5.44775 37.7434C6.49506 36.2209 7.72278 34.8755 9.10012 33.7513C9.35094 33.5477 9.60617 33.3486 9.8658 33.1582C11.8108 31.7331 14.0154 30.6842 16.3256 30.0602V30.0646Z" fill="#89BC66"/>
<path d="M89.7162 33.0475C88.9153 32.335 88.088 31.6578 87.2476 31.0161C88.3345 30.2062 89.3774 29.6928 90.0286 29.4139C90.2267 30.6399 90.1122 31.8924 89.7118 33.0475H89.7162Z" fill="#89BC66"/>
<path d="M88.9989 34.5523C88.4224 35.4685 87.6391 36.274 86.6623 36.8847C86.4818 36.9954 86.3014 37.0972 86.1166 37.1945C84.9329 35.3976 83.5203 33.8132 81.9186 32.5076C81.6458 32.2863 81.3641 32.0694 81.0869 31.8658C78.5786 30.0247 75.6655 28.7678 72.6336 28.1747L71.2827 25.9928C74.5654 26.3159 77.5709 27.2896 80.2332 28.5642C80.7701 28.8209 81.2981 29.0909 81.8086 29.3741C82.8251 29.9318 83.78 30.5293 84.6776 31.1356C85.1353 31.4454 85.5753 31.7641 85.9978 32.0783C87.1155 32.9148 88.1188 33.7601 88.9945 34.5523H88.9989Z" fill="#89BC66"/>
<path d="M84.5808 37.7743C81.5665 38.54 78.2794 37.3096 76.55 34.5125L73.8262 30.1044C76.0836 30.7328 78.2398 31.7685 80.1408 33.1626C80.4004 33.3485 80.6557 33.5521 80.9109 33.7557C82.297 34.8842 83.5291 36.243 84.5808 37.7743Z" fill="#89BC66"/>
<path d="M89.5974 27.8561C88.7965 28.1836 87.3575 28.8652 85.8966 30.0336C85.0473 29.445 84.1892 28.8962 83.3179 28.3961C85.703 27.0462 87.9208 26.6257 88.9153 26.5372L89.0253 26.7143C89.2541 27.0816 89.4433 27.4667 89.6018 27.8561H89.5974Z" fill="#89BC66"/>
<path d="M52.1936 30.0779C51.5247 30.578 50.8735 31.1047 50.2398 31.6623C49.5401 30.879 48.9329 29.9894 48.3652 29.0732H48.3784C49.5005 29.1086 50.9483 29.3299 52.1936 30.0735V30.0779Z" fill="#89BC66"/>
<path d="M62.8603 30.339C61.7162 31.9544 60.3564 33.3707 58.4334 34.0522C57.6765 34.3222 56.8889 34.4506 56.1056 34.4638C56.594 33.9859 57.1089 33.5344 57.6501 33.1184C59.2431 31.8969 60.9945 30.9675 62.8603 30.339Z" fill="#89BC66"/>
<path d="M55.4455 27.9534C54.8163 28.3075 54.2002 28.6881 53.5929 29.0909C52.2464 28.0906 50.4906 27.5374 48.4268 27.471C48.0924 27.4577 47.7536 27.4666 47.4103 27.4799C47.0319 26.8293 46.6578 26.1875 46.2706 25.5768C46.2618 25.5591 46.2486 25.5414 46.2398 25.5281C49.6413 25.3024 52.9065 26.161 55.4455 27.9534Z" fill="#89BC66"/>
<path d="M42.4246 34.2824C42.1562 34.7515 41.835 35.1941 41.4609 35.6057C41.0209 36.0881 40.5104 36.5218 39.9296 36.8847C39.4851 37.1636 39.0231 37.3849 38.5478 37.5575C37.9978 37.7566 37.4301 37.8894 36.8625 37.9514C36.0132 38.0443 35.1595 37.9868 34.3366 37.792C34.6754 37.2255 35.0495 36.6723 35.4499 36.1368C35.7756 35.703 36.1188 35.2826 36.4796 34.8754C37.1441 34.1319 37.8658 33.4326 38.6314 32.7909C39.0495 32.4456 39.4851 32.1137 39.934 31.8039C40.5632 31.3702 41.2189 30.9719 41.8966 30.6222C42.1914 30.4717 42.4554 30.339 42.7018 30.2239C42.9175 30.1221 43.1375 30.0292 43.3663 29.9451C43.4983 31.4543 43.1727 32.9723 42.4246 34.2824Z" fill="#89BC66"/>
<path d="M29.9318 31.5472C29.5138 31.9057 29.0957 32.2775 28.6733 32.6581L27.2651 30.3788C28.1804 30.693 29.0693 31.0825 29.9274 31.5428L29.9318 31.5472Z" fill="#89BC66"/>
<path d="M43.0451 28.3518C42.7019 28.4757 42.3631 28.6173 42.0374 28.7634C41.769 28.8873 41.483 29.0289 41.1661 29.1927C40.3036 29.6397 39.472 30.1575 38.6755 30.7373C38.231 31.0604 37.7998 31.3967 37.3818 31.7552C36.6821 32.3527 36.0176 33.0033 35.3972 33.6893C35.0363 34.0876 34.6931 34.5037 34.3675 34.9241C33.7954 35.6632 33.2761 36.4377 32.8141 37.2344C31.6216 36.6458 30.5699 35.7252 29.8174 34.5081L29.5314 34.0434C30.1474 33.4769 30.7591 32.9325 31.3796 32.4147C31.8152 32.0518 32.2508 31.7021 32.6909 31.3658C33.3686 30.8435 34.0506 30.3567 34.7327 29.9052C35.0627 29.6884 35.3884 29.4759 35.7228 29.2724C35.8944 29.1661 36.066 29.0643 36.2332 28.9626C36.3565 28.8917 36.4753 28.8209 36.5985 28.7501C36.6337 28.7324 36.6689 28.7103 36.6997 28.6926C37.8438 28.042 38.9923 27.4799 40.1452 27.0196C40.7833 26.7629 41.4214 26.5328 42.0594 26.3336L42.2926 26.7098C42.6183 27.2365 42.8691 27.7853 43.0495 28.3474L43.0451 28.3518Z" fill="#89BC66"/>
<path d="M33.1881 29.0201C32.5456 29.4715 31.9032 29.9495 31.2607 30.4541C29.6193 29.4937 27.8548 28.7856 26.011 28.343L24.6469 26.1389C27.5775 26.5815 30.4686 27.564 33.1881 29.0201Z" fill="#89BC66"/>
<path d="M65.5182 26.1212C65.3246 26.431 65.1353 26.7364 64.9461 27.0462C64.6909 27.4622 64.4357 27.8827 64.176 28.312C61.4654 28.9405 58.9307 30.1266 56.6865 31.8438C55.7536 32.5563 54.9131 33.353 54.1254 34.2116C53.3642 34.0036 52.6337 33.6716 51.9648 33.2158C51.7668 33.083 51.582 32.937 51.3928 32.7821C53.0693 31.326 54.8779 30.0735 56.7701 29.0511C56.9945 28.9316 57.2189 28.8121 57.4434 28.7015C60.0264 27.4003 62.7503 26.524 65.5094 26.1256L65.5182 26.1212Z" fill="#89BC66"/>
<path d="M74.8911 3.84609L74.6711 3.4876C73.4213 1.465 71.3575 0.261182 69.1705 0.0398918C69.0957 0.035466 69.0253 0.0266144 68.9505 0.0221886C68.8757 0.0177628 68.8053 0.0133369 68.7305 0.00891113C68.7085 0.00891113 68.6821 0.00891113 68.6601 0.00891113C68.5853 0.00891113 68.5148 0.00891113 68.44 0.00891113C68.3784 0.00891113 68.3168 0.00891113 68.2552 0.00891113C68.2288 0.00891113 68.2024 0.00891113 68.1804 0.00891113C68.1232 0.00891113 68.0704 0.0133369 68.0132 0.0177628C67.8944 0.0266144 67.7756 0.035466 67.6568 0.0487434C67.5688 0.057595 67.4851 0.0708725 67.3971 0.0841499C67.3795 0.0841499 67.3575 0.0885757 67.3399 0.0930015C67.3267 0.0930015 67.3135 0.0974273 67.3003 0.0974273C67.2167 0.110705 67.1331 0.128408 67.0495 0.141685C66.9615 0.159389 66.8735 0.177092 66.7899 0.199221C66.6975 0.22135 66.6095 0.243479 66.5171 0.270034C66.3542 0.314292 66.1958 0.362976 66.0418 0.420511C66.011 0.429363 65.9846 0.438215 65.9582 0.451492C65.879 0.482473 65.7998 0.509028 65.725 0.540008C65.703 0.54886 65.6854 0.557711 65.6634 0.566563C65.5974 0.593118 65.5314 0.624099 65.4653 0.650654C65.3861 0.68606 65.3025 0.725892 65.2189 0.765725C65.2189 0.765725 65.2101 0.77015 65.2057 0.77015C65.1353 0.805557 65.0605 0.840963 64.9901 0.880796L64.9285 0.916202C64.8537 0.956034 64.7833 0.995867 64.7085 1.04012C64.6249 1.08881 64.5457 1.13749 64.4664 1.1906C64.3916 1.23929 64.3124 1.2924 64.2376 1.34551C64.2376 1.34551 64.2376 1.34551 64.2332 1.34993C64.1628 1.39862 64.0924 1.45173 64.0264 1.50041C63.934 1.57122 63.846 1.64203 63.7536 1.71727C63.6876 1.77038 63.626 1.82792 63.56 1.88545C63.4895 1.95184 63.4191 2.0138 63.3487 2.08462C62.9263 2.49622 62.5435 2.96535 62.2222 3.49202L62.0022 3.85051L56.0528 13.4766L49.8834 3.49645C49.6282 3.08042 49.3377 2.70423 49.0209 2.35902C48.9153 2.24394 48.8053 2.1333 48.6953 2.02708C48.044 1.40304 47.2915 0.916202 46.4818 0.579841C46.4114 0.54886 46.341 0.522305 46.2706 0.49575C46.1298 0.438215 45.9846 0.389531 45.8438 0.345273C45.8218 0.340847 45.8042 0.331995 45.7822 0.327569C45.703 0.30544 45.6194 0.278886 45.5402 0.256756C45.4917 0.243479 45.4477 0.234627 45.3993 0.22135C45.3421 0.208073 45.2893 0.194795 45.2321 0.181518C45.1749 0.16824 45.1221 0.154963 45.0649 0.146111C45.0165 0.13726 44.9725 0.128408 44.9285 0.119556C44.8669 0.106279 44.8053 0.0974273 44.7393 0.0885757C44.7085 0.0841499 44.6733 0.0797241 44.6381 0.0752983C44.5149 0.057595 44.3916 0.0443176 44.264 0.035466C44.2156 0.035466 44.1672 0.0266144 44.1188 0.0221886C44.066 0.0177628 44.0088 0.0177628 43.956 0.0133369C43.8988 0.0133369 43.8416 0.00891113 43.7844 0.00891113C43.736 0.00891113 43.6876 0.00891113 43.6392 0.00891113C43.5732 0.00891113 43.5071 0.00891113 43.4411 0.00891113C43.4015 0.00891113 43.3619 0.00891113 43.3179 0.0133369C43.2387 0.0133369 43.1595 0.0221886 43.0803 0.0266144C43.0495 0.0266144 43.0231 0.0310402 42.9967 0.0310402C42.8295 0.0487434 42.6579 0.0664467 42.495 0.0930015C42.4378 0.101853 42.385 0.110705 42.3278 0.123982C42.3102 0.123982 42.2926 0.128408 42.275 0.132834C42.187 0.150537 42.099 0.16824 42.011 0.190369C41.9714 0.199221 41.9318 0.208073 41.8878 0.22135C41.8262 0.239053 41.7646 0.252331 41.703 0.270034C41.6458 0.287737 41.5886 0.301015 41.5358 0.318718C41.4961 0.331995 41.4565 0.340847 41.4169 0.354124C41.3421 0.376253 41.2717 0.402808 41.1969 0.429363C41.1837 0.433789 41.1749 0.438215 41.1617 0.44264C40.8581 0.553286 40.5545 0.68606 40.2596 0.840963C40.2068 0.867518 40.154 0.894073 40.1056 0.925054C40 0.982589 39.8944 1.04455 39.7932 1.11094C39.7888 1.11094 39.7844 1.11536 39.78 1.11979C39.7052 1.16405 39.6348 1.21273 39.5644 1.26142C39.5644 1.26142 39.56 1.26142 39.5556 1.26584C39.5115 1.29682 39.4675 1.32338 39.4279 1.35436C39.3883 1.38091 39.3531 1.40747 39.3135 1.43845C39.2651 1.47385 39.2167 1.50926 39.1727 1.54467C38.4906 2.06691 37.8922 2.71751 37.4125 3.49202L33.637 9.59964L42.2794 23.6162C42.6007 23.2002 43.0979 22.9346 43.6568 22.9346C44.2552 22.9346 44.7789 23.2356 45.0957 23.6958C45.1133 23.7224 45.1309 23.749 45.1441 23.7755C45.1925 23.8507 45.2409 23.9304 45.2893 24.0101C49.6458 23.5144 53.8966 24.6341 57.0209 27.1347C60.0792 25.6299 63.3311 24.6872 66.6051 24.3863C66.7107 24.2092 66.8207 24.0366 66.9263 23.864C66.9351 23.8463 66.9483 23.8286 66.9571 23.8153C67.2607 23.3019 67.8152 22.9612 68.4532 22.9612C69.0385 22.9612 69.5534 23.2533 69.8702 23.6958C69.9142 23.7578 69.9538 23.8242 69.9934 23.895L70.2574 24.3199C73.8086 24.5102 77.3817 25.4529 80.9109 27.1347C81.1749 27.2586 81.4389 27.3914 81.703 27.5242C83.4411 26.4 85.1089 25.7715 86.3322 25.4263C86.9879 25.2405 87.5512 25.1254 88.0044 25.0546L74.9087 3.85937L74.8911 3.84609Z" fill="#1B5849"/>
</g>
<defs>
<clipPath id="clip0_62_371">
<rect width="200" height="38" fill="white"/>
</clipPath>
</defs>
</svg>
