<svg width="59" height="59" viewBox="0 0 59 59" fill="none" xmlns="http://www.w3.org/2000/svg">
<path d="M30.75 52.8674C28.1481 54.6729 23.965 53.7069 23.0594 49.9636C22.8756 49.2052 22.5154 48.5009 22.008 47.908C21.5005 47.3151 20.8603 46.8504 20.1394 46.5517C19.4184 46.253 18.6371 46.1288 17.8591 46.1891C17.0811 46.2495 16.3283 46.4926 15.662 46.8989C11.2259 49.6014 6.14575 44.5241 8.84825 40.0851C9.25392 39.4191 9.49671 38.6668 9.55689 37.8893C9.61707 37.1118 9.49295 36.331 9.19461 35.6105C8.89626 34.89 8.43212 34.2501 7.83991 33.7427C7.2477 33.2354 6.54412 32.8749 5.78638 32.6906C0.737875 31.4659 0.737875 24.2841 5.78638 23.0594C6.5448 22.8756 7.24911 22.5154 7.842 22.008C8.43488 21.5006 8.89958 20.8603 9.19827 20.1394C9.49696 19.4184 9.6212 18.6372 9.56087 17.8591C9.50055 17.0811 9.25737 16.3283 8.85112 15.662C6.14862 11.2259 11.2259 6.14575 15.6649 8.84825C18.5399 10.5963 22.2659 9.0495 23.0594 5.78638C24.2841 0.737875 31.4659 0.737875 32.6906 5.78638C32.8744 6.5448 33.2346 7.24911 33.742 7.842C34.2495 8.43488 34.8897 8.89958 35.6106 9.19827C36.3316 9.49696 37.1129 9.6212 37.8909 9.56087C38.6689 9.50055 39.4217 9.25737 40.088 8.85113C44.5241 6.14863 49.6043 11.2259 46.9018 15.6649C46.4961 16.3309 46.2533 17.0832 46.1931 17.8607C46.1329 18.6382 46.2571 19.419 46.5554 20.1395C46.8537 20.86 47.3179 21.4999 47.9101 22.0073C48.5023 22.5146 49.2059 22.8751 49.9636 23.0594C54.2531 24.1001 54.8971 29.439 51.9014 31.7706" stroke="#0B9E7F" stroke-width="4" stroke-linecap="round" stroke-linejoin="round"/>
<path d="M19.25 27.875C19.25 30.1625 20.1587 32.3563 21.7762 33.9738C23.3937 35.5913 25.5875 36.5 27.875 36.5C30.1625 36.5 32.3563 35.5913 33.9738 33.9738C35.5913 32.3563 36.5 30.1625 36.5 27.875C36.5 25.5875 35.5913 23.3937 33.9738 21.7762C32.3563 20.1587 30.1625 19.25 27.875 19.25C25.5875 19.25 23.3937 20.1587 21.7762 21.7762C20.1587 23.3937 19.25 25.5875 19.25 27.875ZM42.25 56.625L56.625 48L42.25 39.375V56.625Z" stroke="#0B9E7F" stroke-width="4" stroke-linecap="round" stroke-linejoin="round"/>
</svg>
