<svg width="38" height="42" viewBox="0 0 38 42" fill="none" xmlns="http://www.w3.org/2000/svg">
<path d="M36.5155 30.537C35.4612 24.2439 32.4481 18.4439 27.9054 13.9631C26.9109 12.9955 26.4146 12.5126 25.3162 12.0664C24.2178 11.6182 23.2733 11.6182 21.3862 11.6182H17.2389C15.3518 11.6182 14.4073 11.6182 13.3089 12.0664C12.2125 12.5126 11.7123 12.9955 10.7197 13.9631C6.17702 18.4439 3.16395 24.2439 2.10961 30.537C1.17281 36.1886 6.38582 40.4725 12.2105 40.4725H26.4146C32.2412 40.4725 37.4562 36.1886 36.5136 30.537" stroke="#89BC66" stroke-width="2.5" stroke-linecap="round" stroke-linejoin="round"/>
<path d="M22.4435 23.004C22.028 21.467 19.9101 20.082 17.369 21.1189C14.8279 22.1557 14.4258 25.4893 18.2673 25.8452C20.0063 26.0049 21.1374 25.6586 22.1742 26.6377C23.213 27.6149 23.4053 30.3369 20.7526 31.0698C18.1038 31.8027 15.4781 30.6581 15.1934 29.0307M19.0098 19.2972V20.7611M19.0098 31.2948V32.7645M10.19 6.69941C9.79184 6.12232 9.21668 5.33748 10.4055 5.16051C11.627 4.97584 12.8946 5.81069 14.1373 5.79531C15.2588 5.77799 15.8301 5.27977 16.4456 4.56803C17.092 3.81975 18.0923 2 19.3138 2C20.5353 2 21.5356 3.81975 22.1819 4.56803C22.7974 5.27977 23.3688 5.77992 24.4902 5.79338C25.7329 5.81262 27.0006 4.97584 28.2221 5.15859C29.4109 5.33748 28.8357 6.1204 28.4375 6.69748L26.6447 9.31169C25.8752 10.4274 25.4924 10.9852 24.6884 11.3026C23.8843 11.62 22.8475 11.6181 20.7719 11.6181H17.8557C15.7782 11.6181 14.7413 11.6181 13.9392 11.3026C13.137 10.9872 12.7523 10.4255 11.9828 9.30976L10.19 6.69941Z" stroke="#89BC66" stroke-width="2.5" stroke-linecap="round" stroke-linejoin="round"/>
</svg>
