<svg width="27" height="25" viewBox="0 0 27 25" fill="none" xmlns="http://www.w3.org/2000/svg">
<path d="M1.5 11.7647C0.671573 11.7647 -0.00893683 12.4385 0.0865914 13.2614C0.228705 14.4856 0.544774 15.6868 1.02762 16.8296C1.70606 18.4354 2.70048 19.8945 3.95407 21.1235C5.20766 22.3525 6.69588 23.3274 8.33377 23.9925C9.97167 24.6577 11.7272 25 13.5 25C15.2728 25 17.0283 24.6577 18.6662 23.9925C20.3041 23.3274 21.7923 22.3525 23.0459 21.1235C24.2995 19.8945 25.2939 18.4354 25.9724 16.8296C26.4552 15.6868 26.7713 14.4856 26.9134 13.2614C27.0089 12.4385 26.3284 11.7647 25.5 11.7647H22.5C21.6716 11.7647 21.0156 12.4434 20.8446 13.254C20.5503 14.649 19.8462 15.9415 18.8033 16.964C17.3968 18.343 15.4891 19.1176 13.5 19.1176C11.5109 19.1176 9.60321 18.343 8.19669 16.964C7.15377 15.9415 6.44972 14.649 6.15541 13.254C5.9844 12.4434 5.32843 11.7647 4.5 11.7647H1.5ZM4.5 8.82353C5.09095 8.82353 5.67611 8.70942 6.22208 8.48771C6.76804 8.26599 7.26411 7.94102 7.68198 7.53135C8.09984 7.12168 8.43132 6.63533 8.65747 6.10007C8.88362 5.56481 9 4.99113 9 4.41177C9 3.8324 8.88362 3.25872 8.65747 2.72346C8.43132 2.1882 8.09984 1.70185 7.68198 1.29218C7.26411 0.882505 6.76804 0.557537 6.22208 0.335825C5.67611 0.114113 5.09095 -8.63315e-09 4.5 0C3.30653 1.74354e-08 2.16194 0.464809 1.31802 1.29218C0.47411 2.11954 0 3.24169 0 4.41177C0 5.58184 0.47411 6.70399 1.31802 7.53135C2.16194 8.35872 3.30653 8.82353 4.5 8.82353Z" fill="#89BC66"/>
<path d="M25 2L20.6325 4.05715C20.0288 4.3415 20.0692 5.21348 20.6966 5.4408L25 7" stroke="#89BC66" stroke-width="3.5" stroke-linecap="round"/>
</svg>
