<svg width="268" height="31" viewBox="0 0 268 31" fill="none" xmlns="http://www.w3.org/2000/svg">
<path d="M181 7.22268C179.725 6.54656 178.187 6.2085 176.385 6.2085C175.518 6.2085 174.71 6.30664 173.961 6.50294C173.212 6.69923 172.523 6.97913 171.889 7.34628C171.259 7.71342 170.695 8.14963 170.202 8.65491H170.169C169.702 8.14963 169.149 7.71342 168.519 7.34628C167.889 6.97913 167.203 6.69923 166.466 6.50294C165.728 6.30664 164.927 6.2085 164.06 6.2085C162.258 6.2085 160.72 6.54656 159.445 7.22268C158.17 7.89881 157.191 8.81122 156.513 9.9599C155.834 11.1086 155.493 12.37 155.493 13.7477V24.1804H160.305V13.7477C160.305 13.1043 160.475 12.519 160.813 11.9919C161.154 11.4648 161.61 11.0395 162.181 10.7196C162.755 10.3997 163.382 10.2362 164.06 10.2362C164.738 10.2362 165.394 10.3961 165.954 10.7196C166.518 11.0432 166.966 11.4648 167.307 11.9919C167.644 12.519 167.815 13.1043 167.815 13.7477V24.1804H172.626V13.7477C172.626 13.1043 172.797 12.519 173.134 11.9919C173.472 11.4648 173.931 11.0395 174.502 10.7196C175.077 10.3997 175.703 10.2362 176.382 10.2362C177.06 10.2362 177.716 10.3961 178.276 10.7196C178.839 11.0432 179.288 11.4648 179.629 11.9919C179.97 12.519 180.137 13.1043 180.137 13.7477V24.1804H184.948V13.7477C184.948 12.37 184.607 11.1086 183.929 9.9599C183.25 8.81122 182.272 7.89881 180.997 7.22268H181Z" fill="white"/>
<path d="M214.17 10.1707C214.611 9.93082 215.237 9.81086 216.045 9.81086C216.901 9.81086 217.661 9.96717 218.325 10.2798C218.985 10.5924 219.574 11.0613 220.089 11.6866L222.662 9.16382C221.928 8.17871 221.012 7.44079 219.923 6.94642C218.833 6.45568 217.576 6.2085 216.156 6.2085C214.807 6.2085 213.651 6.42297 212.683 6.85554C211.716 7.28812 210.967 7.89881 210.44 8.69489C209.914 9.48734 209.651 10.4361 209.651 11.5412C209.651 12.5735 209.873 13.4169 210.311 14.0639C210.752 14.711 211.323 15.2235 212.02 15.5943C212.716 15.9687 213.454 16.2595 214.225 16.4776C214.996 16.6921 215.734 16.9029 216.431 17.1065C217.128 17.31 217.698 17.5572 218.14 17.8444C218.581 18.1316 218.799 18.5423 218.799 19.0694C218.799 19.5965 218.566 19.96 218.103 20.2217C217.635 20.4871 216.95 20.618 216.045 20.618C215.041 20.618 214.14 20.4435 213.343 20.0945C212.546 19.7456 211.842 19.2257 211.23 18.5278L208.657 21.0505C209.221 21.723 209.881 22.2937 210.641 22.7627C211.4 23.2316 212.231 23.5915 213.139 23.8423C214.043 24.0931 214.989 24.2203 215.967 24.2203C218.025 24.2203 219.656 23.7296 220.857 22.7445C222.058 21.7594 222.658 20.4253 222.658 18.7459C222.658 17.6881 222.436 16.8302 221.998 16.1686C221.557 15.507 220.986 14.98 220.29 14.5837C219.593 14.1875 218.855 13.8749 218.084 13.6459C217.313 13.4169 216.575 13.206 215.878 13.017C215.181 12.8243 214.611 12.5953 214.17 12.3336C213.728 12.0683 213.51 11.6975 213.51 11.2176C213.51 10.7633 213.732 10.4143 214.17 10.1707Z" fill="white"/>
<path d="M232.808 0.766846H228.945V6.2122H224.908V9.65463H228.945V24.1768H232.808V9.65463H236.844V6.2122H232.808V0.766846Z" fill="white"/>
<path d="M252.484 7.32813C251.223 6.58294 249.77 6.21216 248.132 6.21216C246.493 6.21216 244.903 6.60838 243.521 7.40083C242.138 8.19328 241.041 9.26926 240.233 10.6252C239.424 11.981 239.02 13.515 239.02 15.2199C239.02 16.9248 239.432 18.4624 240.251 19.8328C241.07 21.2032 242.186 22.2756 243.595 23.0571C245.003 23.8387 246.59 24.2276 248.354 24.2276C249.726 24.2276 251.023 23.9768 252.247 23.4715C253.47 22.9663 254.511 22.2247 255.368 21.236L252.795 18.6769C252.258 19.2767 251.602 19.7347 250.831 20.0473C250.06 20.3599 249.218 20.5162 248.314 20.5162C247.261 20.5162 246.33 20.2945 245.522 19.851C244.714 19.4075 244.088 18.775 243.65 17.9608C243.439 17.5718 243.283 17.1501 243.172 16.6994H256.324C256.398 16.3395 256.454 16.0087 256.491 15.707C256.528 15.4053 256.547 15.1108 256.547 14.8237C256.547 13.1661 256.183 11.6902 255.464 10.3925C254.741 9.09478 253.748 8.07332 252.488 7.33176L252.484 7.32813ZM243.613 12.3191C244.028 11.5376 244.618 10.9305 245.378 10.4979C246.138 10.0653 247.031 9.85088 248.062 9.85088C249.092 9.85088 249.867 10.0435 250.541 10.4289C251.216 10.8142 251.735 11.3667 252.102 12.0865C252.306 12.4899 252.458 12.948 252.562 13.4569H243.187C243.291 13.0498 243.428 12.6681 243.613 12.3227V12.3191Z" fill="white"/>
<path d="M143.361 6.20483C138.301 6.20483 134.197 10.2289 134.197 15.1908C134.197 20.1527 138.301 24.1767 143.361 24.1767C148.421 24.1767 152.524 20.1527 152.524 15.1908C152.524 10.2289 148.421 6.20483 143.361 6.20483ZM143.413 20.2944C140.562 20.2944 138.249 18.0261 138.249 15.2307C138.249 12.4354 140.562 10.1671 143.413 10.1671C146.263 10.1671 148.576 12.4354 148.576 15.2307C148.576 18.0261 146.263 20.2944 143.413 20.2944Z" fill="white"/>
<path d="M91.0863 6.20505C86.0264 6.20505 81.9229 10.2291 81.9229 15.191C81.9229 20.1529 86.0264 24.1769 91.0863 24.1769C92.6617 24.1769 94.1444 23.788 95.4381 23.0973V24.1769H100.25V18.2445C100.25 16.2379 100.409 14.1513 99.7344 12.2211L99.7233 12.192C99.6417 11.963 99.5528 11.7413 99.4527 11.5195C98.8707 10.2473 97.9848 9.11312 96.8838 8.22979C95.7717 7.3392 94.4484 6.70669 93.0435 6.40862C92.4022 6.27048 91.7424 6.20142 91.0863 6.20142V6.20505ZM90.8638 20.142C88.0985 20.142 85.8559 17.9427 85.8559 15.231C85.8559 12.5192 88.0985 10.32 90.8638 10.32C93.6292 10.32 95.8718 12.5192 95.8718 15.231C95.8718 17.9427 93.6292 20.142 90.8638 20.142Z" fill="white"/>
<path d="M197.24 6.20483C192.18 6.20483 188.077 10.2289 188.077 15.1908C188.077 20.1527 192.18 24.1767 197.24 24.1767C198.816 24.1767 200.298 23.7877 201.592 23.0971V24.1767H206.404V22.032C206.404 19.9527 206.415 17.8735 206.396 15.7942C206.389 14.9727 206.385 14.1548 206.211 13.3478C206.063 12.6498 205.825 11.9664 205.514 11.323C204.899 10.058 203.979 8.94205 202.849 8.08417C201.703 7.21539 200.35 6.61923 198.927 6.35751C198.371 6.25573 197.807 6.20483 197.24 6.20483ZM197.018 20.1417C194.252 20.1417 192.01 17.9425 192.01 15.2307C192.01 12.519 194.252 10.3197 197.018 10.3197C199.783 10.3197 202.026 12.519 202.026 15.2307C202.026 17.9425 199.783 20.1417 197.018 20.1417Z" fill="white"/>
<path d="M121.809 15.2345C121.809 15.2345 121.809 15.2236 121.809 15.22V15.1473C121.794 13.5006 121.386 12.0102 120.578 10.6798C119.755 9.3239 118.636 8.24791 117.22 7.45183C115.804 6.65575 114.191 6.25952 112.386 6.25952C110.581 6.25952 108.972 6.65575 107.552 7.45183C106.136 8.24791 105.017 9.3239 104.194 10.6798C103.371 12.0357 102.959 13.5515 102.959 15.2345C102.959 16.9176 103.371 18.4334 104.194 19.7893C105.017 21.1452 106.136 22.2212 107.552 23.0173C108.968 23.8133 110.581 24.2096 112.386 24.2096C114.191 24.2096 115.8 23.8097 117.22 23.0173C117.253 22.9991 117.287 22.9773 117.324 22.9555V23.0354C117.324 24.2677 116.92 25.231 116.108 25.9253C115.296 26.6196 114.195 26.9686 112.801 26.9686C111.682 26.9686 110.729 26.7723 109.939 26.3797C109.15 25.9871 108.438 25.4201 107.797 24.6821L104.954 27.4702C105.754 28.5898 106.826 29.4586 108.175 30.073C109.524 30.6873 111.077 30.9963 112.835 30.9963C114.592 30.9963 116.148 30.6618 117.494 29.9894C118.843 29.3169 119.9 28.3826 120.663 27.1831C121.427 25.9835 121.813 24.5803 121.813 22.9664V15.2527C121.813 15.2527 121.813 15.2418 121.813 15.2382L121.809 15.2345ZM112.468 20.1419C109.636 20.1419 107.341 17.8918 107.341 15.1146C107.341 12.3374 109.636 10.0873 112.468 10.0873C115.3 10.0873 117.594 12.3374 117.594 15.1146C117.594 17.8918 115.3 20.1419 112.468 20.1419Z" fill="white"/>
<path d="M133.007 6.23411H132.081C130.765 6.23411 129.449 6.22321 128.129 6.2014C127.688 6.19413 127.239 6.18686 126.806 6.28137C125.764 6.51038 124.938 7.55365 124.938 8.8441V24.1514H128.967V10.3454H129.66C130.205 10.3454 130.754 10.3963 131.291 10.2836C131.728 10.1927 132.121 9.93463 132.429 9.54931C133.13 8.66235 133.004 7.36099 133.004 6.23411H133.007Z" fill="white"/>
<path d="M267.99 6.23411H267.063C265.747 6.23411 264.431 6.22321 263.111 6.2014C262.67 6.19413 262.222 6.18686 261.788 6.28137C260.746 6.51038 259.92 7.55365 259.92 8.8441V24.1514H263.949V10.3454H264.642C265.187 10.3454 265.736 10.3963 266.273 10.2836C266.711 10.1927 267.104 9.93463 267.411 9.54931C268.112 8.66235 267.986 7.36099 267.986 6.23411H267.99Z" fill="white"/>
<path d="M56.0191 19.4148C55.9339 19.5529 55.8746 19.7092 55.8412 19.8728C55.8004 19.8728 55.7597 19.8765 55.7226 19.8837C55.8116 19.742 55.9005 19.6002 55.9932 19.4584C56.0006 19.4439 56.0117 19.4293 56.0191 19.4184V19.4148Z" fill="white"/>
<path d="M16.9042 19.4077C16.8263 19.5349 16.7707 19.6694 16.7337 19.8185C16.704 19.8185 16.6706 19.8185 16.641 19.8221L16.9042 19.4077Z" fill="white"/>
<path d="M58.7771 19.8256C58.7474 19.8256 58.7178 19.8256 58.6844 19.8256C58.6548 19.702 58.614 19.5893 58.5547 19.4802L58.7734 19.8292L58.7771 19.8256Z" fill="white"/>
<path d="M37.8851 19.5784C37.8851 19.5784 37.8703 19.5784 37.8665 19.5784C37.8369 19.513 37.8035 19.4475 37.7628 19.3857C37.8035 19.4475 37.8443 19.513 37.8851 19.5748V19.5784Z" fill="white"/>
<path d="M19.7214 19.8946C19.6807 19.891 19.6399 19.8873 19.5954 19.8837C19.562 19.7128 19.499 19.5529 19.4138 19.4111L19.7214 19.8946Z" fill="white"/>
<path d="M2.31387 25.3001C1.63551 25.8018 0.971979 26.3361 0.323275 26.8959C0.00819034 25.9799 -0.0807748 24.9984 0.0749142 24.0315C0.623532 24.2678 1.45387 24.6749 2.31387 25.3001Z" fill="white"/>
<path d="M15.7736 21.1923L14.6504 22.9626C12.0778 23.4352 9.59794 24.4712 7.47019 25.9943C7.23666 26.1615 6.99942 26.3396 6.7733 26.5177C5.44623 27.5719 4.27115 28.8551 3.28883 30.3019C3.15909 30.2364 3.02935 30.1674 2.90331 30.0874C2.06556 29.5748 1.39832 28.8987 0.91272 28.1281C1.63185 27.4956 2.44737 26.8267 3.35555 26.1651C3.71141 25.907 4.0784 25.6489 4.4602 25.3945C5.20899 24.8965 6.00968 24.4094 6.86226 23.955C7.28855 23.726 7.72967 23.5042 8.18191 23.2934C10.4357 22.2392 12.986 21.4431 15.7699 21.1851L15.7736 21.1923Z" fill="white"/>
<path d="M34.4637 20.3347C32.9476 20.8218 31.4352 21.4906 29.9339 22.334C29.9042 22.3485 29.8746 22.3667 29.8486 22.3812C29.578 22.5339 29.3074 22.6938 29.0368 22.861C28.896 22.7811 28.7551 22.7047 28.6105 22.632C25.8044 21.1344 22.7759 20.1893 19.7214 19.8948L19.4138 19.4114C19.3989 19.3859 19.3841 19.3605 19.3656 19.335C19.1024 18.957 18.6613 18.7098 18.1608 18.7098C17.6604 18.7098 17.2156 18.957 16.9524 19.335C16.9338 19.3605 16.919 19.3859 16.9042 19.4114L16.641 19.8258C13.6347 19.9712 10.6099 20.7382 7.62958 22.1231C7.40717 22.2249 7.18846 22.334 6.96975 22.443C5.51666 21.527 4.11916 21.0144 3.09607 20.7309C2.58822 20.5928 2.1471 20.5019 1.78754 20.4401L12.9378 2.839C13.0565 2.64998 13.1862 2.47913 13.3196 2.30828C13.9424 1.53037 14.7283 0.934217 15.5994 0.545263C15.692 0.501642 15.7847 0.465291 15.8774 0.42894C15.9256 0.410765 15.9738 0.392589 16.022 0.374414C16.0294 0.374414 16.0368 0.367144 16.0442 0.363508C16.122 0.334428 16.2036 0.308982 16.2814 0.283537C16.3111 0.272631 16.337 0.265361 16.3667 0.258091C16.426 0.239916 16.489 0.22174 16.5483 0.2072C16.5928 0.196295 16.6336 0.185389 16.6781 0.174484C16.7263 0.163579 16.7745 0.152674 16.8226 0.141768C16.8745 0.130863 16.9264 0.119958 16.982 0.109053C17.0228 0.101782 17.0636 0.0945122 17.1044 0.087242C17.1637 0.0763368 17.2193 0.0690666 17.2786 0.0581613C17.3157 0.0545263 17.3564 0.0472561 17.3935 0.043621C17.4528 0.0363508 17.5121 0.0290807 17.5714 0.0254456C17.6122 0.0218105 17.653 0.0181754 17.6938 0.0145403C17.7494 0.0109053 17.805 0.00727017 17.8643 0.00363508C17.9088 0.00363508 17.9532 0 17.9977 0C18.0496 0 18.0978 0 18.1497 0C18.2016 0 18.2498 0 18.3017 0C18.3462 0 18.3944 0 18.4388 0.00363508C18.4944 0.00363508 18.55 0.00727017 18.6057 0.0145403C18.6464 0.0181754 18.6872 0.0218105 18.728 0.0254456C18.7873 0.0290807 18.8466 0.0363508 18.9059 0.043621C18.943 0.0472561 18.9838 0.0545263 19.0208 0.0581613C19.0801 0.0654315 19.1394 0.0763368 19.1988 0.087242C19.2395 0.0945122 19.2803 0.101782 19.3211 0.109053C19.373 0.119958 19.4286 0.130863 19.4805 0.141768C19.5287 0.152674 19.5769 0.163579 19.625 0.174484C19.6695 0.185389 19.7103 0.196295 19.7548 0.2072C19.8178 0.22174 19.8771 0.239916 19.9364 0.258091C19.9661 0.265361 19.9957 0.276266 20.0217 0.283537C20.0995 0.308982 20.1811 0.334428 20.2589 0.363508C20.2663 0.363508 20.2775 0.370779 20.2849 0.374414L20.4406 0.43621C20.485 0.45075 20.5258 0.468926 20.5666 0.487101C20.6148 0.505277 20.6593 0.527087 20.7075 0.548898C20.7556 0.570708 20.8001 0.592519 20.8446 0.614329C20.9484 0.661585 21.0485 0.716112 21.1486 0.770638C21.219 0.806989 21.2857 0.85061 21.3562 0.890596C21.3673 0.897866 21.3784 0.905136 21.3895 0.908771C21.4006 0.912406 21.4081 0.919676 21.4155 0.926946C22.1828 1.39587 22.8611 2.03928 23.3727 2.84627L27.3279 9.08771L34.46 20.3383L34.4637 20.3347Z" fill="white"/>
<path d="M5.60561 23.1663C4.87906 23.577 4.15622 24.0242 3.4482 24.504C2.27683 23.5879 1.11658 23.039 0.434509 22.7591C0.567957 22.4284 0.73106 22.1048 0.927524 21.7922L1.01278 21.6577C1.88761 21.7486 3.67803 22.1048 5.60561 23.1663Z" fill="white"/>
<path d="M13.6606 24.5259L11.3624 28.1537C9.89815 30.462 7.10316 31.4616 4.56024 30.7964C5.43507 29.5532 6.46558 28.4554 7.61471 27.5394C7.8223 27.3721 8.041 27.2122 8.256 27.0559C9.88332 25.8927 11.7256 25.0384 13.6606 24.5295V24.5259Z" fill="white"/>
<path d="M75.0688 26.9577C74.3979 26.3761 73.7084 25.8235 73.0041 25.3001C73.9123 24.6421 74.7871 24.2205 75.332 23.9915C75.4988 24.9911 75.4024 26.0126 75.0688 26.954V26.9577Z" fill="white"/>
<path d="M74.4683 28.1863C73.9864 28.9352 73.3303 29.5895 72.5148 30.0875C72.3665 30.1784 72.2145 30.262 72.0588 30.3383C71.0691 28.8734 69.8866 27.5793 68.5447 26.5142C68.3186 26.3324 68.0813 26.158 67.8515 25.9907C65.7497 24.4895 63.3143 23.4607 60.7788 22.9809L59.6482 21.1997C62.395 21.4651 64.9083 22.2575 67.1361 23.2971C67.5846 23.508 68.0257 23.7297 68.452 23.9587C69.3009 24.4131 70.1016 24.9002 70.8541 25.3982C71.2359 25.6527 71.6066 25.9108 71.9587 26.1689C72.8966 26.8523 73.7343 27.5393 74.4646 28.1863H74.4683Z" fill="white"/>
<path d="M70.7725 30.8146C68.2482 31.4398 65.4976 30.4365 64.052 28.1537L61.7759 24.5586C63.6664 25.0711 65.468 25.9145 67.062 27.0559C67.277 27.2086 67.492 27.3721 67.7032 27.5394C68.8598 28.459 69.894 29.5677 70.7725 30.8182V30.8146Z" fill="white"/>
<path d="M74.9688 22.7227C74.2978 22.9881 73.0931 23.5442 71.8698 24.5003C71.1618 24.0204 70.439 23.5733 69.7124 23.1626C71.7067 22.0611 73.5639 21.7194 74.3979 21.6467L74.4869 21.7885C74.6796 22.0902 74.8353 22.4028 74.9688 22.7191V22.7227Z" fill="white"/>
<path d="M43.6716 24.533C43.1118 24.9401 42.5669 25.3727 42.0368 25.8271C41.4511 25.1873 40.9433 24.4603 40.4688 23.7151H40.4799C41.4178 23.7442 42.6299 23.9223 43.6716 24.533Z" fill="white"/>
<path d="M52.6014 24.7476C51.6451 26.0635 50.507 27.2194 48.8983 27.7792C48.2681 27.9973 47.6083 28.1064 46.9521 28.1136C47.3636 27.7247 47.7899 27.3539 48.2458 27.0159C49.5766 26.0198 51.0445 25.2601 52.6051 24.7476H52.6014Z" fill="white"/>
<path d="M46.3924 22.7992C45.8661 23.09 45.3508 23.399 44.843 23.7262C43.7198 22.9119 42.2444 22.4575 40.5207 22.4066C40.239 22.3957 39.9573 22.403 39.6719 22.4139C39.3531 21.8832 39.0417 21.3597 38.7192 20.8617C38.7118 20.8472 38.7007 20.8327 38.6932 20.8218C41.5364 20.64 44.2721 21.3379 46.3961 22.7992H46.3924Z" fill="white"/>
<path d="M35.5016 27.9646C35.2792 28.35 35.0086 28.7098 34.6972 29.0443C34.3302 29.4369 33.9002 29.7931 33.4146 30.0875C33.0439 30.3129 32.6547 30.4947 32.2618 30.6364C31.8021 30.8 31.3276 30.9091 30.8494 30.96C30.1414 31.0363 29.4223 30.989 28.7365 30.8291C29.0219 30.3638 29.3333 29.9131 29.6669 29.4768C29.9375 29.1242 30.2267 28.7825 30.5269 28.4481C31.083 27.8411 31.6835 27.2703 32.3285 26.7505C32.6806 26.467 33.0439 26.198 33.4183 25.9435C33.9447 25.5873 34.4933 25.2638 35.0605 24.9766C35.3088 24.853 35.5275 24.7476 35.7351 24.6531C35.9167 24.5731 36.1021 24.4968 36.2911 24.4241C36.4023 25.6527 36.128 26.8923 35.5053 27.961L35.5016 27.9646Z" fill="white"/>
<path d="M25.0445 25.7327C24.6923 26.0271 24.3439 26.3288 23.9917 26.6415L22.8129 24.7839C23.5803 25.042 24.3253 25.3583 25.0408 25.7327H25.0445Z" fill="white"/>
<path d="M36.0206 23.1262C35.7314 23.228 35.4497 23.3407 35.1791 23.4643C34.953 23.5661 34.7158 23.6788 34.4489 23.8169C33.726 24.184 33.0291 24.6057 32.3656 25.0746C31.9949 25.3364 31.6316 25.6126 31.2832 25.9071C30.6975 26.3942 30.1415 26.9249 29.6225 27.4847C29.3223 27.8119 29.0331 28.1463 28.7588 28.4953C28.2806 29.0987 27.8469 29.7312 27.4614 30.3819C26.4642 29.902 25.5857 29.1532 24.9555 28.1572L24.7146 27.7791C25.2299 27.3139 25.7451 26.874 26.2604 26.4523C26.6236 26.1579 26.9906 25.8707 27.3576 25.5981C27.9248 25.1728 28.4956 24.7766 29.0665 24.4058C29.3408 24.2277 29.6151 24.0532 29.8931 23.8896C30.0377 23.8024 30.1785 23.7188 30.3194 23.6352C30.4195 23.577 30.5233 23.5188 30.6234 23.4607C30.653 23.4461 30.6827 23.428 30.7086 23.4134C31.665 22.8827 32.6288 22.4247 33.5889 22.0466C34.1227 21.8358 34.6565 21.6504 35.1902 21.4868L35.3867 21.7958C35.6573 22.2247 35.8686 22.6719 36.0169 23.1335L36.0206 23.1262Z" fill="white"/>
<path d="M27.7727 23.6715C27.2352 24.0386 26.6977 24.4276 26.1602 24.842C24.785 24.0568 23.3097 23.4825 21.7676 23.1189L20.6296 21.3196C23.0798 21.6795 25.5004 22.4828 27.7764 23.6715H27.7727Z" fill="white"/>
<path d="M54.8219 21.3052C54.6625 21.556 54.5031 21.8068 54.3437 22.0576C54.1287 22.3957 53.9174 22.741 53.6987 23.09C51.4301 23.6025 49.3097 24.5695 47.4303 25.9726C46.6519 26.5542 45.9476 27.2049 45.2878 27.9029C44.6502 27.732 44.0386 27.463 43.4825 27.0886C43.3194 26.9795 43.16 26.8596 43.0043 26.736C44.4055 25.5473 45.9179 24.5259 47.5045 23.6934C47.6898 23.5953 47.8789 23.5008 48.0679 23.4063C50.229 22.3448 52.5088 21.6287 54.8182 21.3052H54.8219Z" fill="white"/>
<path d="M62.6656 3.13323L62.4803 2.84242C61.4349 1.19209 59.7075 0.210618 57.8763 0.0288636C57.8133 0.0252285 57.754 0.0179583 57.6947 0.0143232C57.6317 0.0106881 57.5724 0.00705305 57.5094 0.00341797C57.4908 0.00341797 57.4686 0.00341797 57.45 0.00341797C57.387 0.00341797 57.3277 0.00341797 57.2647 0.00341797C57.2128 0.00341797 57.1609 0.00341797 57.109 0.00341797C57.0868 0.00341797 57.0645 0.00341797 57.046 0.00341797C56.9978 0.00341797 56.9533 0.00705305 56.9051 0.0106881C56.8051 0.0179583 56.7087 0.0252285 56.6086 0.0361337C56.5382 0.0434039 56.464 0.0543092 56.3936 0.0652144C56.3788 0.0652144 56.3602 0.0688495 56.3454 0.0724846C56.3343 0.0724846 56.3232 0.0761197 56.312 0.0761197C56.2416 0.0870249 56.1712 0.101565 56.1007 0.11247C56.0266 0.127011 55.9562 0.141551 55.8857 0.159727C55.8079 0.177902 55.7338 0.196077 55.6559 0.214253C55.5225 0.250604 55.389 0.29059 55.2556 0.337846C55.2333 0.345116 55.2074 0.352386 55.1851 0.359656C55.1184 0.385102 55.0554 0.406912 54.9887 0.432358C54.9701 0.439628 54.9553 0.446898 54.9368 0.454168C54.8812 0.475979 54.8256 0.501425 54.77 0.523235C54.7033 0.552316 54.6328 0.585031 54.5661 0.617747L54.5587 0.621382C54.4994 0.650463 54.4401 0.679544 54.377 0.712259L54.3252 0.74134C54.2621 0.774056 54.2028 0.806772 54.1398 0.843122C54.0731 0.883108 54.0027 0.923094 53.9359 0.966715C53.8729 1.0067 53.8062 1.05032 53.7432 1.09394C53.7432 1.09394 53.7432 1.09394 53.7395 1.09758C53.6802 1.13756 53.6245 1.17755 53.5652 1.22117C53.4874 1.27933 53.4133 1.33749 53.3391 1.39929C53.2835 1.44291 53.2316 1.49017 53.176 1.53742C53.1167 1.58831 53.0574 1.64284 52.9981 1.69737C52.6459 2.03543 52.3271 2.41711 52.0565 2.84605L51.8712 3.13686L46.8929 10.9923L41.7329 2.84969C41.5179 2.51163 41.2769 2.20264 41.01 1.92274C40.9211 1.82823 40.8321 1.74099 40.7357 1.65375C40.1908 1.14483 39.5606 0.74861 38.8823 0.472344C38.823 0.446898 38.7637 0.425088 38.7044 0.403277C38.5857 0.356021 38.4671 0.316035 38.3448 0.279684C38.3263 0.276049 38.3114 0.268779 38.2929 0.265144C38.2262 0.246969 38.1557 0.225158 38.089 0.206983C38.0519 0.199713 38.0112 0.188807 37.9704 0.177902C37.9222 0.166997 37.8777 0.156092 37.8295 0.145186C37.7813 0.134281 37.7369 0.123376 37.6887 0.116106C37.6516 0.108835 37.6108 0.101565 37.5738 0.0942951C37.5219 0.0833898 37.47 0.0761197 37.4144 0.0688495C37.3884 0.0652144 37.3588 0.0615793 37.3328 0.0579442C37.229 0.0434039 37.1252 0.0324986 37.0214 0.0252285C36.9807 0.0252285 36.9399 0.0179583 36.9028 0.0179583C36.8583 0.0143232 36.8138 0.0143232 36.7657 0.0106881C36.7175 0.0106881 36.6693 0.00705305 36.6211 0.00705305C36.5803 0.00705305 36.5395 0.00705305 36.4988 0.00705305C36.4432 0.00705305 36.3876 0.00705305 36.332 0.00705305C36.2986 0.00705305 36.2652 0.00705305 36.2282 0.0106881C36.1614 0.0106881 36.0947 0.0179583 36.028 0.0215934C36.0058 0.0215934 35.9798 0.0252285 35.9576 0.0252285C35.8167 0.0397688 35.6758 0.0543092 35.535 0.0761197C35.4868 0.0833898 35.4423 0.09066 35.3978 0.0979302C35.383 0.0979302 35.3682 0.101565 35.3533 0.1052C35.2792 0.119741 35.2051 0.134281 35.1309 0.152456C35.0976 0.159727 35.0642 0.166997 35.0308 0.177902C34.9789 0.192442 34.927 0.203348 34.8789 0.217888C34.8307 0.232428 34.7825 0.243334 34.738 0.257874C34.7046 0.268779 34.6713 0.276049 34.6379 0.286955C34.5749 0.30513 34.5156 0.32694 34.4526 0.348751C34.4414 0.352386 34.434 0.356021 34.4229 0.359656C34.1671 0.450533 33.9151 0.559586 33.6667 0.686814C33.6222 0.708624 33.5815 0.730435 33.537 0.75588C33.448 0.803136 33.3627 0.854028 33.2738 0.904919C33.2701 0.904919 33.2664 0.908554 33.2627 0.912189C33.1996 0.94854 33.144 0.988526 33.081 1.02488C33.081 1.02488 33.0773 1.02488 33.0736 1.02851C33.0365 1.05032 32.9995 1.07577 32.9661 1.10121C32.9327 1.12302 32.9031 1.14483 32.8697 1.17028C32.829 1.19936 32.7882 1.22844 32.7511 1.25752C32.1802 1.68283 31.6798 2.21355 31.2795 2.84605L28.1212 7.82975L35.3533 19.2621C35.6202 18.924 36.0391 18.7059 36.5062 18.7059C37.0066 18.7059 37.4477 18.9531 37.7109 19.3275C37.7257 19.3493 37.7406 19.3711 37.7517 19.393C37.7925 19.4548 37.8332 19.5202 37.874 19.582C41.5216 19.1785 45.0765 20.0909 47.6898 22.1302C50.2513 20.9052 52.9721 20.1345 55.7115 19.8873C55.8005 19.7456 55.8895 19.6038 55.9821 19.462C55.9895 19.4475 56.0007 19.4329 56.0081 19.422C56.2601 19.004 56.7272 18.7241 57.2573 18.7241C57.7466 18.7241 58.1766 18.9604 58.4435 19.3239C58.4806 19.3748 58.5139 19.4293 58.5436 19.4838L58.7623 19.8328C61.7352 19.9891 64.7229 20.7561 67.6736 22.1265C67.8923 22.2283 68.1147 22.3374 68.3334 22.4464C69.7865 21.5304 71.184 21.0178 72.2071 20.7343C72.7558 20.5853 73.2265 20.4908 73.6046 20.429L62.6471 3.13686L62.6656 3.13323Z" fill="white"/>
</svg>
