<svg width="88" height="65" viewBox="0 0 88 60" fill="none" xmlns="http://www.w3.org/2000/svg">
    <path
        d="M2.15015 64.375C1.53788 64.375 1.02574 64.169 0.613738 63.757C0.201737 63.345 -0.00283151 62.8357 2.95978e-05 62.2292C0.00289071 61.6226 0.20746 61.1119 0.613738 60.697C1.02002 60.2822 1.53072 60.0762 2.14586 60.079H85.6703C86.2797 60.079 86.789 60.285 87.1981 60.697C87.6073 61.109 87.8133 61.6183 87.8161 62.2249C87.819 62.8314 87.613 63.3421 87.1981 63.757C86.7833 64.1719 86.274 64.3779 85.6703 64.375H2.15015ZM12.2141 55.7917C10.2399 55.7917 8.59052 55.1293 7.26582 53.8046C5.94113 52.4799 5.28021 50.8305 5.28307 48.8563V6.93105C5.28307 4.95689 5.94542 3.30745 7.27011 1.98276C8.59481 0.658064 10.2428 -0.00285186 12.2141 9.24929e-06H75.602C77.5762 9.24929e-06 79.2242 0.660925 80.546 1.98276C81.8679 3.30459 82.5302 4.95402 82.5331 6.93105V48.8606C82.5331 50.8348 81.8707 52.4828 80.546 53.8046C79.2213 55.1265 77.5719 55.7888 75.5977 55.7917H12.2141ZM12.2141 51.5H75.602C76.2601 51.5 76.8652 51.2239 77.4174 50.6717C77.9696 50.1195 78.2443 49.5144 78.2414 48.8563V6.93105C78.2414 6.273 77.9667 5.66787 77.4174 5.11568C76.8652 4.56348 76.2587 4.28738 75.5977 4.28738H12.2184C11.5575 4.28738 10.9509 4.56348 10.3987 5.11568C9.8494 5.66501 9.57474 6.27014 9.57474 6.93105V48.8606C9.57474 49.5187 9.8494 50.1224 10.3987 50.6717C10.9481 51.221 11.5532 51.4971 12.2141 51.5Z"
        fill="#0B9E7F" />
</svg>