<svg width="38" height="33" viewBox="0 0 38 33" fill="none" xmlns="http://www.w3.org/2000/svg">
<path fill-rule="evenodd" clip-rule="evenodd" d="M3.5625 3.53571V22.3929H34.4375V3.53571H3.5625ZM2.375 25.9286H11.875V29.4643H8.90625C8.43383 29.4643 7.98076 29.6505 7.64672 29.9821C7.31267 30.3136 7.125 30.7633 7.125 31.2321C7.125 31.701 7.31267 32.1507 7.64672 32.4822C7.98076 32.8137 8.43383 33 8.90625 33H29.0938C29.5662 33 30.0192 32.8137 30.3533 32.4822C30.6873 32.1507 30.875 31.701 30.875 31.2321C30.875 30.7633 30.6873 30.3136 30.3533 29.9821C30.0192 29.6505 29.5662 29.4643 29.0938 29.4643H26.125V25.9286H35.625C36.2549 25.9286 36.859 25.6802 37.3044 25.2382C37.7498 24.7961 38 24.1966 38 23.5714V2.35714C38 1.73199 37.7498 1.13244 37.3044 0.690391C36.859 0.248341 36.2549 0 35.625 0H2.375C1.74511 0 1.14102 0.248341 0.695621 0.690391C0.250223 1.13244 0 1.73199 0 2.35714L0 23.5714C0 24.1966 0.250223 24.7961 0.695621 25.2382C1.14102 25.6802 1.74511 25.9286 2.375 25.9286ZM15.4375 29.4643V25.9286H22.5625V29.4643H15.4375ZM27.3125 11.1964C27.3125 10.7276 27.1248 10.2779 26.7908 9.94636C26.4567 9.61483 26.0037 9.42857 25.5312 9.42857C25.0588 9.42857 24.6058 9.61483 24.2717 9.94636C23.9377 10.2779 23.75 10.7276 23.75 11.1964V17.0893C23.75 17.5582 23.9377 18.0078 24.2717 18.3393C24.6058 18.6709 25.0588 18.8571 25.5312 18.8571C26.0037 18.8571 26.4567 18.6709 26.7908 18.3393C27.1248 18.0078 27.3125 17.5582 27.3125 17.0893V11.1964ZM18.4062 7.07143C18.8787 7.07143 19.3317 7.25768 19.6658 7.58922C19.9998 7.92076 20.1875 8.37042 20.1875 8.83929V17.0893C20.1875 17.5582 19.9998 18.0078 19.6658 18.3393C19.3317 18.6709 18.8787 18.8571 18.4062 18.8571C17.9338 18.8571 17.4808 18.6709 17.1467 18.3393C16.8127 18.0078 16.625 17.5582 16.625 17.0893V8.83929C16.625 8.37042 16.8127 7.92076 17.1467 7.58922C17.4808 7.25768 17.9338 7.07143 18.4062 7.07143ZM13.0625 13.5536C13.0625 13.0847 12.8748 12.635 12.5408 12.3035C12.2067 11.972 11.7537 11.7857 11.2812 11.7857C10.8088 11.7857 10.3558 11.972 10.0217 12.3035C9.68767 12.635 9.5 13.0847 9.5 13.5536V17.0893C9.5 17.5582 9.68767 18.0078 10.0217 18.3393C10.3558 18.6709 10.8088 18.8571 11.2812 18.8571C11.7537 18.8571 12.2067 18.6709 12.5408 18.3393C12.8748 18.0078 13.0625 17.5582 13.0625 17.0893V13.5536Z" fill="#89BC66"/>
</svg>
