<svg width="35" height="35" viewBox="0 0 35 35" fill="none" xmlns="http://www.w3.org/2000/svg">
<path d="M7.5 8.75C7.50006 8.42156 7.62938 8.10635 7.86 7.8725L7.8725 7.86C8.10635 7.62938 8.42156 7.50006 8.75 7.5H13.75C14.0815 7.5 14.3995 7.6317 14.6339 7.86612C14.8683 8.10054 15 8.41848 15 8.75C15 9.08152 14.8683 9.39946 14.6339 9.63388C14.3995 9.8683 14.0815 10 13.75 10H11.7675L14.635 12.865C14.8697 13.0997 15.0016 13.4181 15.0016 13.75C15.0016 14.0819 14.8697 14.4003 14.635 14.635C14.4003 14.8697 14.0819 15.0016 13.75 15.0016C13.4181 15.0016 13.0997 14.8697 12.865 14.635L10 11.7675V13.75C10 14.0815 9.8683 14.3995 9.63388 14.6339C9.39946 14.8683 9.08152 15 8.75 15C8.41848 15 8.10054 14.8683 7.86612 14.6339C7.6317 14.3995 7.5 14.0815 7.5 13.75V8.75ZM7.595 26.7275C7.53234 26.5761 7.50006 26.4139 7.5 26.25V21.25C7.5 20.9185 7.6317 20.6005 7.86612 20.3661C8.10054 20.1317 8.41848 20 8.75 20C9.08152 20 9.39946 20.1317 9.63388 20.3661C9.8683 20.6005 10 20.9185 10 21.25V23.2325L12.865 20.365C12.9812 20.2488 13.1192 20.1566 13.271 20.0937C13.4229 20.0308 13.5856 19.9984 13.75 19.9984C13.9144 19.9984 14.0771 20.0308 14.229 20.0937C14.3808 20.1566 14.5188 20.2488 14.635 20.365C14.7512 20.4812 14.8434 20.6192 14.9063 20.771C14.9692 20.9229 15.0016 21.0856 15.0016 21.25C15.0016 21.4144 14.9692 21.5771 14.9063 21.729C14.8434 21.8808 14.7512 22.0188 14.635 22.135L11.7675 25H13.75C14.0815 25 14.3995 25.1317 14.6339 25.3661C14.8683 25.6005 15 25.9185 15 26.25C15 26.5815 14.8683 26.8995 14.6339 27.1339C14.3995 27.3683 14.0815 27.5 13.75 27.5H8.7425C8.496 27.499 8.25531 27.4251 8.05069 27.2876C7.84607 27.1502 7.68916 26.9553 7.595 26.7275ZM26.725 7.595C26.8717 7.655 27.005 7.74333 27.125 7.86L27.1375 7.8725C27.369 8.10594 27.4993 8.42121 27.5 8.75V13.75C27.5 14.0815 27.3683 14.3995 27.1339 14.6339C26.8995 14.8683 26.5815 15 26.25 15C25.9185 15 25.6005 14.8683 25.3661 14.6339C25.1317 14.3995 25 14.0815 25 13.75V11.7675L22.135 14.635C21.9003 14.8697 21.5819 15.0016 21.25 15.0016C20.9181 15.0016 20.5997 14.8697 20.365 14.635C20.1303 14.4003 19.9984 14.0819 19.9984 13.75C19.9984 13.4181 20.1303 13.0997 20.365 12.865L23.2325 10H21.25C20.9185 10 20.6005 9.8683 20.3661 9.63388C20.1317 9.39946 20 9.08152 20 8.75C20 8.41848 20.1317 8.10054 20.3661 7.86612C20.6005 7.6317 20.9185 7.5 21.25 7.5H26.25C26.4139 7.50006 26.5761 7.53234 26.7275 7.595M27.1275 27.14C26.8937 27.3706 26.5784 27.4999 26.25 27.5H21.25C20.9185 27.5 20.6005 27.3683 20.3661 27.1339C20.1317 26.8995 20 26.5815 20 26.25C20 25.9185 20.1317 25.6005 20.3661 25.3661C20.6005 25.1317 20.9185 25 21.25 25H23.2325L20.365 22.135C20.2488 22.0188 20.1566 21.8808 20.0937 21.729C20.0308 21.5771 19.9984 21.4144 19.9984 21.25C19.9984 21.0856 20.0308 20.9229 20.0937 20.771C20.1566 20.6192 20.2488 20.4812 20.365 20.365C20.4812 20.2488 20.6192 20.1566 20.771 20.0937C20.9229 20.0308 21.0856 19.9984 21.25 19.9984C21.4144 19.9984 21.5771 20.0308 21.729 20.0937C21.8808 20.1566 22.0188 20.2488 22.135 20.365L25 23.2325V21.25C25 20.9185 25.1317 20.6005 25.3661 20.3661C25.6005 20.1317 25.9185 20 26.25 20C26.5815 20 26.8995 20.1317 27.1339 20.3661C27.3683 20.6005 27.5 20.9185 27.5 21.25V26.25C27.4999 26.5784 27.3706 26.8937 27.14 27.1275L27.1275 27.14ZM0 5C0 3.67392 0.526784 2.40215 1.46447 1.46447C2.40215 0.526784 3.67392 0 5 0H30C31.3261 0 32.5979 0.526784 33.5355 1.46447C34.4732 2.40215 35 3.67392 35 5V30C35 31.3261 34.4732 32.5979 33.5355 33.5355C32.5979 34.4732 31.3261 35 30 35H5C3.67392 35 2.40215 34.4732 1.46447 33.5355C0.526784 32.5979 0 31.3261 0 30V5ZM5 2.5C4.33696 2.5 3.70107 2.76339 3.23223 3.23223C2.76339 3.70107 2.5 4.33696 2.5 5V30C2.5 30.663 2.76339 31.2989 3.23223 31.7678C3.70107 32.2366 4.33696 32.5 5 32.5H30C30.663 32.5 31.2989 32.2366 31.7678 31.7678C32.2366 31.2989 32.5 30.663 32.5 30V5C32.5 4.33696 32.2366 3.70107 31.7678 3.23223C31.2989 2.76339 30.663 2.5 30 2.5H5Z" fill="#89BC66"/>
</svg>
